<?xml version="1.0" encoding="UTF-8" standalone="no"?>
<!-- Uploaded to: SVG Repo, www.svgrepo.com, Generator: SVG Repo Mixer Tools -->

<svg
   width="800px"
   height="800px"
   viewBox="0 -183 512 512"
   version="1.1"
   id="svg8"
   sodipodi:docname="mongodb.svg"
   inkscape:version="1.3.2 (091e20e, 2023-11-25, custom)"
   xmlns:inkscape="http://www.inkscape.org/namespaces/inkscape"
   xmlns:sodipodi="http://sodipodi.sourceforge.net/DTD/sodipodi-0.dtd"
   xmlns="http://www.w3.org/2000/svg"
   xmlns:svg="http://www.w3.org/2000/svg">
  <defs
     id="defs8" />
  <sodipodi:namedview
     id="namedview8"
     pagecolor="#ffffff"
     bordercolor="#000000"
     borderopacity="0.25"
     inkscape:showpageshadow="2"
     inkscape:pageopacity="0.0"
     inkscape:pagecheckerboard="0"
     inkscape:deskcolor="#d1d1d1"
     inkscape:zoom="1.07625"
     inkscape:cx="399.53542"
     inkscape:cy="399.07085"
     inkscape:window-width="1920"
     inkscape:window-height="1057"
     inkscape:window-x="-8"
     inkscape:window-y="-8"
     inkscape:window-maximized="1"
     inkscape:current-layer="svg8" />
  <g
     fill="none"
     fill-rule="evenodd"
     id="g8"
     style="fill:#000080">
    <path
       d="M476.713 60.463c-.46.092-.922 1.107-.922 1.66-.092 3.692-.184 13.474-.184 20.118 0 .185.276.554.553.554 1.384.092 4.706.184 7.567.184 3.968 0 6.275-.553 7.568-1.106 3.321-1.662 4.89-5.261 4.89-9.23 0-8.95-6.275-12.365-15.596-12.365-.646-.092-2.49-.092-3.876.185zm23.81 41.25c0-9.136-6.737-14.212-18.918-14.212-.554 0-4.43-.092-5.353.092-.277.093-.645.278-.645.555 0 6.551-.093 16.98.184 21.04.184 1.753 1.477 4.245 3.046 4.983 1.66.923 5.444 1.107 8.028 1.107 7.29 0 13.658-4.06 13.658-13.565zm-42.634-46.325c.922 0 3.69.276 10.796.276 6.737 0 12.089-.184 18.641-.184 8.028 0 19.102 2.86 19.102 14.857 0 5.906-4.153 10.613-9.597 12.92-.276.092-.276.276 0 .368 7.751 1.939 14.581 6.737 14.581 15.78 0 8.86-5.537 14.489-13.566 17.996-4.891 2.122-10.981 2.86-17.164 2.86-4.707 0-17.349-.553-24.362-.368-.738-.278.646-3.6 1.291-4.153 1.662-.093 2.953-.185 4.707-.739 2.492-.645 2.768-1.384 3.137-5.167.185-3.23.185-14.674.185-22.794 0-11.166.093-18.733 0-22.424-.092-2.86-1.107-3.784-3.137-4.338-1.57-.276-4.153-.646-6.276-.922-.462-.462 1.107-3.6 1.662-3.968zm-53.248 57.399c2.216 1.752 6.553 2.49 10.429 2.49 4.983 0 9.966-.921 14.765-5.26 4.891-4.428 8.305-11.257 8.305-22.146 0-10.429-3.968-18.919-12.089-23.901-4.614-2.862-10.52-4.06-17.349-4.06-2.03 0-3.968.092-5.167.645-.278.185-.923 1.015-.923 1.476-.185 1.846-.185 16.057-.185 24.363 0 8.582 0 20.579.185 21.963 0 1.385.645 3.507 2.03 4.43zm-20.948-57.4c1.754 0 8.49.277 11.72.277 5.815 0 9.967-.276 20.948-.276 9.228 0 16.98 2.491 22.517 7.197 6.736 5.814 10.244 13.843 10.244 23.624 0 13.935-6.368 21.964-12.736 26.578-6.366 4.706-14.672 7.474-26.484 7.474-6.275 0-17.072-.184-26.024-.277h-.092c-.461-.83.738-4.06 1.476-4.152 2.4-.277 3.046-.37 4.246-.83 1.937-.739 2.307-1.754 2.584-5.168.276-6.368.184-14.027.184-22.702 0-6.182.092-18.272-.093-22.148-.276-3.229-1.66-4.06-4.429-4.614-1.384-.276-3.23-.646-5.813-.922-.37-.647 1.291-3.507 1.752-4.06z"
       fill="#8E714E"
       id="path1"
       style="fill:#0000ff" />
    <path
       d="M272.033 116.385c-2.307-.277-3.968-.645-5.998-1.568-.277-.185-.739-1.107-.739-1.477-.184-3.23-.184-12.458-.184-18.64 0-4.984-.83-9.321-2.953-12.366-2.492-3.508-6.09-5.537-10.705-5.537-4.06 0-9.505 2.768-14.027 6.644-.092.092-.83.739-.738-.277 0-1.015.185-3.045.277-4.43.093-1.292-.646-1.937-.646-1.937-2.953 1.476-11.258 3.414-14.304 3.69-2.214.463-2.768 2.585-.46 3.323h.092c2.49.738 4.152 1.569 5.443 2.4.923.738.831 1.753.831 2.584.092 6.92.092 17.533-.184 23.347-.092 2.307-.738 3.137-2.4 3.506l.185-.092c-1.292.277-2.307.553-3.876.738-.554.554-.554 3.507 0 4.153 1.015 0 6.367-.277 10.798-.277 6.09 0 9.228.277 10.796.277.646-.738.831-3.507.462-4.153-1.754-.092-3.046-.276-4.245-.646-1.661-.37-2.123-1.199-2.216-3.137-.183-4.892-.183-15.227-.183-22.24 0-1.938.553-2.861 1.106-3.415 2.123-1.845 5.538-3.137 8.583-3.137 2.953 0 4.89.923 6.367 2.123 2.03 1.66 2.676 4.06 2.953 5.813.461 3.968.277 11.812.277 18.641 0 3.691-.277 4.614-1.66 5.075-.647.277-2.308.647-4.246.83-.646.647-.461 3.508 0 4.154 2.676 0 5.814-.277 10.428-.277 5.721 0 9.413.277 10.89.277.46-.554.645-3.23.276-3.969zm25.562-35.25c-4.89 0-7.936 3.783-7.936 9.688 0 5.999 2.676 12.92 10.243 12.92 1.292 0 3.692-.554 4.798-1.846 1.754-1.66 2.954-4.983 2.954-8.49 0-7.659-3.784-12.273-10.059-12.273zm-.646 40.787c-1.845 0-3.138.554-3.968 1.016-3.876 2.49-5.629 4.89-5.629 7.752 0 2.675 1.015 4.797 3.23 6.643 2.676 2.307 6.367 3.415 11.073 3.415 9.413 0 13.566-5.076 13.566-10.058 0-3.508-1.754-5.815-5.352-7.106-2.584-1.108-7.29-1.662-12.92-1.662zm.646 23.994c-5.629 0-9.69-1.2-13.196-3.876-3.415-2.584-4.891-6.46-4.891-9.136 0-.738.185-2.769 1.846-4.614 1.014-1.108 3.23-3.23 8.49-6.829.184-.092.276-.184.276-.37 0-.184-.185-.369-.369-.46-4.337-1.661-5.629-4.338-5.999-5.814v-.185c-.091-.554-.276-1.107.555-1.661.646-.461 1.569-1.015 2.583-1.66 1.569-.924 3.23-1.939 4.245-2.77.185-.184.185-.368.185-.553 0-.185-.185-.37-.37-.461-6.458-2.123-9.688-6.922-9.688-14.12 0-4.706 2.122-8.951 5.905-11.627 2.584-2.03 9.044-4.522 13.289-4.522h.277c4.337.092 6.736 1.015 10.15 2.215 1.846.646 3.6.922 6 .922 3.598 0 5.167-1.107 6.458-2.398.093.184.278.646.37 1.845.092 1.2-.277 2.953-1.2 4.245-.738 1.015-2.399 1.754-4.06 1.754h-.462c-1.661-.185-2.4-.37-2.4-.37l-.368.185c-.092.185 0 .369.092.646l.093.185c.184.83.553 3.321.553 3.968 0 7.567-3.045 10.888-6.275 13.38-3.138 2.307-6.736 3.783-10.797 4.153-.092 0-.46 0-1.292.092-.461 0-1.107.093-1.2.093h-.092c-.738.184-2.583 1.107-2.583 2.675 0 1.384.83 3.046 4.798 3.323.83.092 1.66.092 2.584.185 5.26.368 11.812.83 14.857 1.845 4.245 1.568 6.921 5.352 6.921 9.874 0 6.83-4.89 13.197-13.011 17.164-3.968 1.754-7.937 2.677-12.274 2.677zm52.6-64.32c-1.937 0-3.691.46-4.983 1.383-3.598 2.215-5.444 6.645-5.444 13.104 0 12.09 6.09 20.58 14.765 20.58 2.584 0 4.614-.739 6.367-2.215 2.676-2.216 4.061-6.645 4.061-12.828 0-11.996-5.999-20.025-14.765-20.025zm1.662 39.496c-15.688 0-21.317-11.535-21.317-22.332 0-7.567 3.045-13.381 9.135-17.534 4.338-2.676 9.506-4.152 14.12-4.152 11.996 0 20.394 8.582 20.394 20.948 0 8.397-3.322 15.041-9.69 19.102-3.045 2.03-8.305 3.968-12.643 3.968h.001zM187.411 81.595c-1.938 0-3.691.461-4.984 1.384-3.598 2.215-5.444 6.645-5.444 13.104 0 12.09 6.09 20.58 14.765 20.58 2.584 0 4.614-.739 6.368-2.215 2.675-2.216 4.06-6.645 4.06-12.828 0-11.996-5.906-20.025-14.765-20.025zm1.661 39.497c-15.688 0-21.317-11.535-21.317-22.332 0-7.567 3.045-13.381 9.135-17.534 4.338-2.676 9.506-4.152 14.12-4.152 11.997 0 20.394 8.582 20.394 20.948 0 8.397-3.322 15.041-9.69 19.102-2.953 2.03-8.213 3.968-12.642 3.968zm-105.478-.923c-.185-.276-.37-1.107-.277-2.122 0-.739.185-1.2.277-1.384 1.938-.278 2.953-.555 4.06-.831 1.846-.462 2.584-1.476 2.676-3.783.278-5.537.278-16.058.185-23.348v-.185c0-.83 0-1.846-1.015-2.584-1.477-.922-3.23-1.752-5.537-2.4-.83-.275-1.384-.737-1.292-1.29 0-.554.554-1.2 1.754-1.385 3.045-.277 10.98-2.214 14.118-3.599.185.184.462.739.462 1.477l-.092 1.014c-.093 1.016-.185 2.216-.185 3.415 0 .369.37.646.738.646.185 0 .37-.092.554-.185 5.906-4.614 11.258-6.275 14.026-6.275 4.523 0 8.03 2.123 10.706 6.552.184.278.369.37.646.37.184 0 .46-.092.553-.277 5.445-4.153 10.89-6.645 14.488-6.645 8.582 0 13.658 6.368 13.658 17.165 0 3.045 0 7.013-.092 10.613 0 3.229-.092 6.182-.092 8.305 0 .46.645 1.937 1.66 2.214 1.292.646 3.046.923 5.353 1.292h.092c.185.646-.184 3.045-.553 3.507-.554 0-1.385 0-2.307-.092a136.208 136.208 0 0 0-7.014-.185c-5.721 0-8.674.092-11.536.277-.183-.738-.276-2.953 0-3.507 1.662-.276 2.492-.554 3.508-.83 1.846-.554 2.307-1.385 2.4-3.784 0-1.753.368-16.703-.186-20.302-.553-3.691-3.322-8.028-9.413-8.028-2.307 0-5.905.923-9.412 3.598-.184.185-.37.646-.37.923v.093c.37 1.937.37 4.153.37 7.567v5.998c0 4.153-.093 8.029 0 10.981 0 2.031 1.2 2.492 2.215 2.862.554.091.922.184 1.384.276.83.185 1.661.37 2.953.646.185.37.185 1.569-.092 2.584-.093.554-.278.83-.37.923-3.137-.092-6.367-.185-11.073-.185-1.384 0-3.784.093-5.814.093-1.662 0-3.23.092-4.152.092-.093-.185-.278-.83-.278-1.846 0-.83.185-1.476.37-1.661.461-.092.83-.184 1.292-.184 1.106-.185 2.03-.37 2.952-.554 1.57-.461 2.123-1.292 2.215-3.322.277-4.614.554-17.81-.092-21.133-1.107-5.352-4.152-8.028-9.044-8.028-2.86 0-6.46 1.384-9.412 3.6-.462.368-.831 1.29-.831 2.121v5.445c0 6.644 0 14.95.092 18.549.093 1.106.461 2.399 2.584 2.86.462.092 1.2.277 2.123.37l1.66.276c.186.554.093 2.769-.276 3.507-.923 0-2.03-.092-3.323-.092-1.937-.093-4.429-.185-7.197-.185-3.23 0-5.537.092-7.383.185-1.292-.185-2.307-.185-3.414-.185z"
       fill="#442D22"
       id="path2"
       style="fill:#000080" />
    <path
       d="M35.053 142.317l-3.783-1.293s.462-19.286-6.46-20.67c-4.613-5.353.74-227.013 17.35-.739 0 0-5.722 2.86-6.737 7.752-1.108 4.799-.37 14.95-.37 14.95z"
       fill="#FFF"
       id="path3"
       style="fill:#000080" />
    <path
       d="M35.053 142.317l-3.783-1.293s.462-19.286-6.46-20.67c-4.613-5.353.74-227.013 17.35-.739 0 0-5.722 2.86-6.737 7.752-1.108 4.799-.37 14.95-.37 14.95z"
       fill="#A6A385"
       id="path4"
       style="fill:#0000ff" />
    <path
       d="M37.084 123.676s33.13-21.779 25.377-67.09c-7.474-32.943-25.1-43.74-27.038-47.893C33.301 5.74 31.27.573 31.27.573l1.385 91.634c0 .093-2.861 28.054 4.43 31.47"
       fill="#FFF"
       id="path5"
       style="fill:#000080" />
    <path
       d="M37.084 123.676s33.13-21.779 25.377-67.09c-7.474-32.943-25.1-43.74-27.038-47.893C33.301 5.74 31.27.573 31.27.573l1.385 91.634c0 .093-2.861 28.054 4.43 31.47"
       fill="#499D4A"
       id="path6"
       style="fill:#000080" />
    <path
       d="M29.333 124.875S-1.767 103.65.079 66.277C1.832 28.903 23.795 10.539 28.04 7.217c2.769-2.953 2.861-4.061 3.046-7.014 1.938 4.153 1.569 62.106 1.845 68.934.83 26.3-1.476 50.756-3.598 55.738z"
       fill="#FFF"
       id="path7"
       style="fill:#000080" />
    <path
       d="M29.333 124.875S-1.767 103.65.079 66.277C1.832 28.903 23.795 10.539 28.04 7.217c2.769-2.953 2.861-4.061 3.046-7.014 1.938 4.153 1.569 62.106 1.845 68.934.83 26.3-1.476 50.756-3.598 55.738z"
       fill="#58AA50"
       id="path8"
       style="fill:#000080" />
  </g>
  <path
     style="fill:#2f88ff;stroke:#0000ff;stroke-width:2.4158;paint-order:fill markers stroke"
     d="M 39.392008,475.17352 C 11.039249,449.49713 -1.8699812,418.87719 1.03983,384.20441 c 2.7349317,-32.58895 14.122326,-57.76095 36.358798,-80.37166 6.07013,-6.17229 10.331595,-11.2986 10.758624,-12.94204 0.702942,-2.70531 0.722703,-2.6895 3.350249,2.68101 1.535847,3.13916 6.510863,9.71061 11.875518,15.68625 15.106953,16.82751 23.302401,30.92002 29.857966,51.34236 4.317315,13.4496 5.444404,20.62997 5.455284,34.75391 0.02331,30.26295 -11.517047,56.91034 -33.365055,77.04193 -5.925511,5.45999 -7.338697,6.3589 -8.495943,5.40414 -2.442014,-2.01473 -4.851497,-8.80628 -5.424681,-15.29042 -0.81123,-9.17703 -1.791321,-9.82011 -2.483671,-1.62961 -0.792797,9.37877 -2.592527,19.0268 -3.549233,19.0268 -0.41729,0 -3.110845,-2.1301 -5.985678,-4.73356 z"
     id="path9"
     transform="matrix(0.64,0,0,0.64,0,-183)" />
  <path
     style="fill:#2f88ff;stroke:#0000ff;stroke-width:2.4158;paint-order:fill markers stroke"
     d="m 131.01045,471.09784 c 0,-1.76863 0.59473,-2.42679 2.55517,-2.82769 1.40534,-0.28738 3.60047,-1.04171 4.87805,-1.6763 3.0204,-1.50025 3.52911,-5.29682 3.63521,-27.13043 0.0938,-19.31091 -0.0879,-19.86141 -7.35232,-22.27427 -5.55329,-1.84451 -6.0541,-3.86215 -1.16094,-4.67718 4.07337,-0.67847 16.80894,-3.79455 19.09697,-4.67255 1.36726,-0.52466 1.57667,0.0869 1.57667,4.60473 0,2.86536 0.2684,5.20974 0.59645,5.20974 0.32806,0 3.15036,-1.5978 6.27178,-3.55066 14.15266,-8.85437 23.03824,-8.93809 30.44338,-0.28685 1.80662,2.11063 3.7532,3.83751 4.32573,3.83751 0.57252,0 3.59017,-1.64764 6.70589,-3.66142 11.36184,-7.34351 20.68445,-8.40424 28.09409,-3.19654 8.10421,5.69584 10.47205,15.20276 9.4949,38.12211 -0.61471,14.41811 -0.56394,15.07975 1.30028,16.94396 1.06698,1.06698 3.61832,2.20835 5.66964,2.53637 3.1377,0.50173 3.72968,0.94624 3.72968,2.80052 v 2.20413 h -16.26016 -16.26017 v -2.13017 c 0,-1.73803 0.76605,-2.33506 4.16125,-3.24313 3.09418,-0.82757 4.30009,-1.66613 4.70266,-3.27012 0.29778,-1.18643 0.41128,-10.35976 0.25223,-20.38517 -0.31664,-19.95792 -0.49987,-20.6504 -6.68651,-25.2694 -3.85576,-2.87874 -12.64315,-2.66196 -18.71459,0.46168 l -4.62096,2.37739 -0.25009,21.22316 c -0.28138,23.87905 -0.24531,24.02136 6.37233,25.1394 3.05169,0.51558 3.63386,0.973 3.63386,2.85515 v 2.24121 H 190.94077 174.6806 v -2.21738 c 0,-1.9096 0.56982,-2.30283 4.10521,-2.833 2.25787,-0.33858 4.59944,-1.21112 5.2035,-1.93897 0.75087,-0.90474 1.13789,-6.98918 1.22347,-19.23437 0.11439,-16.36732 -0.0422,-18.27137 -1.81657,-22.09219 -3.15951,-6.80339 -4.99234,-7.8978 -13.22663,-7.8978 -6.10192,0 -7.7256,0.36576 -11.51685,2.59434 l -4.41347,2.59434 v 21.68213 c 0,23.9214 -0.12476,23.41223 5.97914,24.40276 3.76229,0.61053 4.50637,1.31054 3.68056,3.46256 -0.48823,1.2723 -2.81218,1.47758 -16.72775,1.47758 h -16.16076 z"
     id="path10"
     transform="matrix(0.64,0,0,0.64,0,-183)" />
  <path
     style="fill:#2f88ff;stroke:#0000ff;stroke-width:2.4158;paint-order:fill markers stroke"
     d="m 285.24971,473.51524 c -8.7246,-2.85862 -15.25529,-8.5365 -19.26254,-16.74711 -2.31141,-4.73593 -2.53953,-6.15412 -2.55526,-15.88544 -0.0158,-9.79455 0.18879,-11.07562 2.45474,-15.36831 6.74314,-12.77442 24.26562,-20.98431 38.56567,-18.06935 14.27939,2.91075 23.53954,13.13664 25.05881,27.67219 1.62891,15.58459 -5.67371,29.24999 -19.0752,35.69544 -5.27218,2.53566 -7.31888,2.98844 -14.50097,3.20802 -4.5993,0.14061 -9.40767,-0.0868 -10.68525,-0.50544 z m 20.14857,-5.74624 c 7.94371,-3.00135 10.92751,-10.33572 10.32289,-25.37434 -0.35373,-8.79831 -0.79011,-11.12274 -2.92853,-15.59918 -2.9766,-6.23105 -8.37723,-11.4221 -13.3076,-12.79118 -13.25265,-3.68006 -21.9223,3.32742 -23.16104,18.72055 -0.66735,8.29272 1.35012,18.70971 4.74566,24.50376 5.31564,9.07046 15.98483,13.69289 24.32862,10.54039 z"
     id="path11"
     transform="matrix(0.64,0,0,0.64,0,-183)" />
  <path
     style="fill:#2f88ff;stroke:#0000ff;stroke-width:2.4158;paint-order:fill markers stroke"
     d="m 346.57375,470.73432 c 0,-2.38008 0.38891,-2.7309 3.59594,-3.24372 6.01748,-0.96223 6.12488,-1.35859 6.46995,-23.87773 0.20058,-13.08945 -0.0384,-20.86714 -0.67778,-22.06189 -0.54316,-1.01491 -3.31048,-2.80809 -6.14959,-3.98483 -7.31306,-3.0311 -6.55196,-4.55063 3.27024,-6.52901 4.3412,-0.8744 9.65465,-2.19782 11.80765,-2.94094 2.153,-0.74311 4.13907,-1.12659 4.41347,-0.85219 0.27441,0.27441 0.49893,2.51983 0.49893,4.98983 0,2.46999 0.33688,4.4909 0.74863,4.4909 0.41175,0 2.18876,-1.07833 3.9489,-2.39629 12.09852,-9.05911 23.09597,-10.05946 31.30949,-2.84798 6.32065,5.54953 7.07009,8.68403 7.6645,32.05609 0.59132,23.25104 0.45356,22.81887 7.63992,23.96802 3.11402,0.49795 3.50853,0.86111 3.50853,3.22974 v 2.6687 h -16.72474 -16.72474 v -2.6687 c 0,-2.38008 0.38892,-2.7309 3.59594,-3.24372 6.0154,-0.9619 6.16489,-1.49619 6.12061,-21.87627 -0.0428,-19.71084 -0.37639,-21.29441 -5.49233,-26.07432 -3.52422,-3.29274 -13.41742,-3.85123 -18.87754,-1.06569 -6.62654,3.38061 -6.7288,3.76198 -6.62456,24.70571 0.0509,10.23472 0.38317,19.65388 0.73828,20.93147 0.521,1.87439 1.53464,2.51191 5.25001,3.30191 2.53239,0.53847 4.56253,1.47924 4.51143,2.0906 -0.3411,4.08057 0.45501,3.89901 -17.0964,3.89901 h -16.72474 z"
     id="path12"
     transform="matrix(0.64,0,0,0.64,0,-183)" />
  <path
     style="fill:#2f88ff;stroke:#0000ff;stroke-width:2.4158;paint-order:fill markers stroke"
     d="m 454.16245,512.05374 c -12.36933,-3.32946 -19.94899,-15.38982 -14.96974,-23.81902 0.85913,-1.45439 4.41314,-4.81185 7.89779,-7.46103 3.48466,-2.64917 6.33575,-5.17153 6.33575,-5.60524 0,-0.43371 -1.21744,-1.41812 -2.70542,-2.18758 -3.30708,-1.71016 -6.5861,-5.72417 -6.5861,-8.06237 0,-1.10762 2.0053,-2.98335 5.57491,-5.21468 3.0662,-1.91666 5.57491,-4.00017 5.57491,-4.63003 0,-0.62986 -1.56794,-1.95164 -3.48432,-2.93729 -7.47597,-3.84513 -11.46268,-10.6211 -11.50541,-19.55505 -0.048,-10.03234 4.71481,-16.92413 14.98973,-21.69027 8.88241,-4.12019 16.6462,-4.4388 27.84825,-1.14283 9.85206,2.89877 17.2648,2.9063 20.45327,0.0208 1.83201,-1.65796 1.8727,-1.64213 1.8727,0.72839 0,5.71172 -3.54337,9.01468 -9.67083,9.01468 h -3.07932 l 0.05,7.6655 c 0.0582,8.93697 -1.29857,12.77538 -6.27481,17.75163 -4.64704,4.64703 -11.2208,7.77932 -18.79145,8.9538 -4.47367,0.69403 -6.85202,1.56383 -7.99428,2.92364 -2.02437,2.4099 -2.02288,2.89215 0.0167,5.41095 1.42151,1.75549 3.07954,2.14964 12.31127,2.92665 15.91738,1.33974 21.2777,2.38645 25.06864,4.89518 4.31252,2.85389 6.5058,7.40592 6.5058,13.5024 0,18.96047 -27.02318,34.54522 -49.43801,28.51179 z m 29.7081,-8.51881 c 6.07888,-3.02923 8.95569,-7.38882 8.86451,-13.43349 -0.0362,-2.40167 -0.76343,-5.41588 -1.62317,-6.72801 -3.13363,-4.78252 -12.99249,-7.55388 -25.05504,-7.04306 -6.694,0.28347 -8.10014,0.65508 -11.07898,2.92788 -9.50442,7.2517 -8.09425,18.4746 3.02943,24.10993 4.34274,2.20005 6.15736,2.55516 13.05702,2.55516 6.74369,0 8.77271,-0.37841 12.80623,-2.38841 z m -7.68293,-58.28236 c 9.1049,-9.1049 5.34685,-28.9797 -6.10044,-32.26274 -4.63026,-1.32794 -7.46204,-1.12588 -11.02872,0.78696 -4.64956,2.49358 -6.56136,6.74696 -6.56136,14.59771 0,12.30021 6.12825,19.87274 16.12079,19.92007 3.87284,0.0183 4.93705,-0.40932 7.56973,-3.042 z"
     id="path13"
     transform="matrix(0.64,0,0,0.64,0,-183)" />
  <path
     style="fill:#2f88ff;stroke:#0000ff;stroke-width:2.4158;paint-order:fill markers stroke"
     d="m 537.35884,472.66621 c -8.96295,-3.1981 -15.25738,-9.92951 -18.33413,-19.60697 -5.71287,-17.969 0.86559,-34.57019 16.6315,-41.97075 30.15379,-14.15426 57.29624,10.78648 45.84966,42.13049 -2.70257,7.40043 -8.80979,13.68661 -17.02986,17.52889 -8.28352,3.87194 -19.43175,4.66059 -27.11717,1.91834 z m 23.88447,-5.99954 c 2.90566,-1.46524 4.84061,-3.3413 6.46865,-6.27178 2.13144,-3.83659 2.32288,-5.14001 2.32288,-15.81512 0,-11.28048 -0.093,-11.8229 -3.06168,-17.85311 -3.37314,-6.85183 -7.71189,-11.03578 -13.12627,-12.65797 -13.12893,-3.93352 -22.10409,3.42631 -23.09985,18.94237 -1.57262,24.50471 14.17637,41.88525 30.49627,33.65561 z"
     id="path14"
     transform="matrix(0.64,0,0,0.64,0,-183)" />
  <path
     style="fill:#2f88ff;stroke:#0000ff;stroke-width:2.4158;paint-order:fill markers stroke"
     d="m 600.23229,471.81419 c 0,-2.84717 2.05722,-4.64985 5.97514,-5.23582 6.84926,-1.02439 6.53588,0.84312 6.85085,-40.82659 0.15534,-20.5514 0.0259,-38.75681 -0.28763,-40.45646 -0.6464,-3.50414 -3.45753,-5.10604 -10.91235,-6.21832 -2.42741,-0.36217 -4.41347,-0.80041 -4.41347,-0.97386 0,-0.17344 0.49822,-1.40882 1.10715,-2.74528 l 1.10715,-2.42993 32.11004,0.3676 c 25.8597,0.29604 32.92392,0.64787 36.29122,1.80747 15.8773,5.46766 26.23157,15.45021 30.88558,29.77678 2.54242,7.82639 2.71517,22.99933 0.35173,30.89258 -5.18952,17.33154 -17.79173,29.28184 -36.81883,34.91418 -6.32355,1.87189 -9.49706,2.09937 -34.60431,2.48057 -26.72399,0.40573 -27.64227,0.36079 -27.64227,-1.35292 z m 63.38896,-8.38586 c 5.95805,-2.61657 13.26939,-9.67354 16.41948,-15.84821 4.58963,-8.99642 6.17926,-26.81449 3.35842,-37.64442 -4.03939,-15.50825 -14.90116,-26.12139 -30.01864,-29.33151 -5.97039,-1.26778 -21.48313,-1.35764 -23.41535,-0.13564 -1.20213,0.76026 -1.39373,6.15495 -1.39373,39.24245 0,29.45919 0.27591,38.84391 1.18898,40.44198 3.76379,6.58742 22.24782,8.37538 33.86084,3.27535 z"
     id="path15"
     transform="matrix(0.64,0,0,0.64,0,-183)" />
  <path
     style="fill:#2f88ff;stroke:#0000ff;stroke-width:2.4158;paint-order:fill markers stroke"
     d="m 722.18351,472.76336 c -5.03465,-0.21043 -8.59466,-0.75495 -8.59466,-1.3146 0,-2.78406 2.03751,-4.33417 6.4698,-4.92214 7.9596,-1.05587 7.65131,0.69456 7.8015,-44.29593 l 0.13056,-39.10902 -2.11468,-1.71766 c -1.16307,-0.94471 -4.40349,-2.00363 -7.20093,-2.35314 -5.25127,-0.65611 -6.03181,-1.56052 -3.88297,-4.49923 1.11401,-1.52349 3.26821,-1.62284 29.036,-1.33903 l 27.83273,0.30655 6.14034,2.90943 c 16.86982,7.99327 17.39408,27.51649 1.01172,37.67597 -1.68774,1.04665 -2.8472,2.12442 -2.57657,2.39505 0.27063,0.27063 2.73006,1.40165 5.46539,2.51337 11.07755,4.50225 16.5561,11.8681 16.5561,22.25949 0,13.80362 -9.50187,24.27435 -27.06156,29.82089 -5.29085,1.67121 -29.36165,2.49137 -49.01277,1.67 z m 49.7349,-8.81292 c 6.86,-3.25807 10.4277,-9.86383 10.4277,-19.30735 0,-14.74296 -11.38788,-22.80269 -31.29407,-22.14827 l -8.1949,0.26941 0.0247,17.65389 c 0.0208,14.87996 0.27522,18.11912 1.6194,20.61471 2.00728,3.7267 2.58857,4.0692 8.43835,4.97209 6.60357,1.01924 14.24981,0.19152 18.97887,-2.05448 z m -5.10576,-49.42883 c 6.42487,-2.73761 9.89853,-10.13281 8.65492,-18.42579 -1.65139,-11.01227 -11.45842,-17.12052 -26.2565,-16.3537 l -5.42477,0.28111 -0.58827,6.03949 c -0.81277,8.34454 -0.94066,28.3588 -0.18603,29.11343 1.20018,1.20018 20.70681,0.66372 23.80065,-0.65454 z"
     id="path16"
     transform="matrix(0.64,0,0,0.64,0,-183)" />
</svg>
