<?xml version="1.0" encoding="UTF-8" standalone="no"?>
<!-- Uploaded to: SVG Repo, www.svgrepo.com, Generator: SVG Repo Mixer Tools -->

<svg
   fill="#000000"
   width="800px"
   height="800px"
   viewBox="0 0 32 32"
   version="1.1"
   id="svg1"
   sodipodi:docname="node.svg"
   inkscape:version="1.3.2 (091e20e, 2023-11-25, custom)"
   xmlns:inkscape="http://www.inkscape.org/namespaces/inkscape"
   xmlns:sodipodi="http://sodipodi.sourceforge.net/DTD/sodipodi-0.dtd"
   xmlns="http://www.w3.org/2000/svg"
   xmlns:svg="http://www.w3.org/2000/svg">
  <defs
     id="defs1" />
  <sodipodi:namedview
     id="namedview1"
     pagecolor="#ffffff"
     bordercolor="#000000"
     borderopacity="0.25"
     inkscape:showpageshadow="2"
     inkscape:pageopacity="0.0"
     inkscape:pagecheckerboard="0"
     inkscape:deskcolor="#d1d1d1"
     inkscape:zoom="1.07625"
     inkscape:cx="399.53542"
     inkscape:cy="399.07085"
     inkscape:window-width="1920"
     inkscape:window-height="1057"
     inkscape:window-x="-8"
     inkscape:window-y="-8"
     inkscape:window-maximized="1"
     inkscape:current-layer="svg1" />
  <path
     d="M 21.300781 6 C 21.143781 6 21 6.1257812 21 6.3007812 L 21 11.796875 L 19.753906 11.070312 C 19.675906 11.024313 19.588 11.001953 19.5 11.001953 C 19.412 11.001953 19.324094 11.024312 19.246094 11.070312 L 16.251953 12.816406 C 16.095953 12.906406 16 13.072953 16 13.251953 L 16 16.748047 C 16 16.928047 16.095953 17.093594 16.251953 17.183594 L 19.246094 18.929688 C 19.324094 18.975687 19.412 18.998047 19.5 18.998047 C 19.588 18.998047 19.675906 18.975688 19.753906 18.929688 L 22.748047 17.183594 C 22.904047 17.093594 23 16.927047 23 16.748047 L 23 15 L 23 13.251953 L 23 7.2304688 C 23 7.0524688 22.904953 6.8888281 22.751953 6.7988281 L 21.449219 6.0410156 C 21.400219 6.0130156 21.350781 6 21.300781 6 z M 11.5 11.001953 C 11.41225 11.001953 11.324594 11.024813 11.246094 11.070312 L 8.2519531 12.816406 C 8.0959531 12.906406 8 13.072953 8 13.251953 L 8 16.748047 C 8 16.928047 8.0959531 17.093594 8.2519531 17.183594 L 11.246094 18.929688 C 11.403094 19.020688 11.596906 19.020688 11.753906 18.929688 L 14.748047 17.183594 C 14.904047 17.093594 15 16.927047 15 16.748047 L 15 13.251953 C 15 13.071953 14.904047 12.906406 14.748047 12.816406 L 11.753906 11.070312 C 11.675406 11.024812 11.58775 11.001953 11.5 11.001953 z M 27.5 11.001953 C 27.412 11.001953 27.324094 11.024312 27.246094 11.070312 L 24.251953 12.816406 C 24.095953 12.906406 24 13.072953 24 13.251953 L 24 16.748047 C 24 16.928047 24.095953 17.093594 24.251953 17.183594 L 27.15625 18.939453 C 27.31225 19.034453 27.508016 19.035359 27.666016 18.943359 L 29.09375 18.113281 C 29.24175 18.028281 29.24275 17.813562 29.09375 17.726562 L 26 15.904297 L 26 14.109375 L 27.5 13.236328 L 29 14.109375 L 29 15.359375 C 29 15.526375 29.140375 15.552094 29.234375 15.496094 C 29.612375 15.274094 30.751953 14.613281 30.751953 14.613281 C 30.904953 14.524281 31 14.359641 31 14.181641 L 31 13.251953 C 31 13.071953 30.904047 12.906406 30.748047 12.816406 L 27.753906 11.070312 C 27.674906 11.024313 27.588 11.001953 27.5 11.001953 z M 3.5 11.003906 C 3.412 11.003906 3.3240937 11.026266 3.2460938 11.072266 L 0.25195312 12.816406 C 0.095953125 12.907406 0 13.073906 0 13.253906 L 0 17.716797 C 0 17.934797 0.23582812 18.069938 0.42382812 17.960938 L 1.7519531 17.1875 C 1.9049531 17.0975 2 16.933859 2 16.755859 L 2 14.113281 L 3.5 13.238281 L 5 14.113281 L 5 16.755859 C 5 16.933859 5.0950469 17.0975 5.2480469 17.1875 L 6.5761719 17.960938 C 6.7641719 18.070938 7 17.934797 7 17.716797 L 7 13.253906 C 7 13.073906 6.9040469 12.907406 6.7480469 12.816406 L 3.7539062 11.072266 C 3.6759063 11.026266 3.588 11.003906 3.5 11.003906 z M 19.5 13.236328 L 21 14.111328 L 21 15 L 21 15.888672 L 19.5 16.763672 L 18 15.888672 L 18 14.111328 L 19.5 13.236328 z M 27.5 14.003906 L 26.642578 14.503906 L 26.642578 15.501953 L 27.5 16 L 28.357422 15.501953 L 28.357422 14.503906 L 27.5 14.003906 z M 15.40625 17.998047 C 15.303375 17.998047 15.199375 18.023219 15.109375 18.074219 L 12.296875 19.699219 C 12.111875 19.801219 12 20.001938 12 20.210938 L 12 23.457031 C 12 23.666031 12.116875 23.86275 12.296875 23.96875 L 13.037109 24.390625 C 13.392109 24.565625 13.522594 24.566406 13.683594 24.566406 C 14.213594 24.566406 14.515625 24.249453 14.515625 23.689453 L 14.515625 20.482422 C 14.515625 20.433422 14.477594 20.398438 14.433594 20.398438 L 14.078125 20.398438 C 14.029125 20.398438 13.994141 20.438422 13.994141 20.482422 L 13.994141 23.689453 C 13.994141 23.932453 13.737359 24.181656 13.318359 23.972656 L 12.548828 23.529297 C 12.523828 23.514297 12.505859 23.484078 12.505859 23.455078 L 12.505859 20.208984 C 12.505859 20.179984 12.519828 20.145859 12.548828 20.130859 L 15.361328 18.509766 C 15.391328 18.494766 15.425219 18.494766 15.449219 18.509766 L 18.263672 20.130859 C 18.292672 20.145859 18.306641 20.174984 18.306641 20.208984 L 18.306641 23.455078 C 18.306641 23.489078 18.287672 23.518203 18.263672 23.533203 L 15.449219 25.160156 C 15.424219 25.175156 15.385328 25.175156 15.361328 25.160156 L 14.642578 24.732422 C 14.623578 24.722422 14.593219 24.716562 14.574219 24.726562 C 14.375219 24.843563 14.335391 24.858875 14.150391 24.921875 C 14.101391 24.936875 14.034781 24.966922 14.175781 25.044922 L 15.109375 25.599609 C 15.202375 25.648609 15.30425 25.677734 15.40625 25.677734 C 15.51325 25.677734 15.617219 25.648703 15.699219 25.595703 L 18.511719 23.96875 C 18.696719 23.86675 18.808594 23.666031 18.808594 23.457031 L 18.808594 20.210938 C 18.808594 20.001938 18.691719 19.806219 18.511719 19.699219 L 15.699219 18.074219 C 15.611719 18.023219 15.509125 17.998047 15.40625 17.998047 z M 19.792969 19.496094 C 19.505969 19.496094 19.253906 19.728156 19.253906 20.035156 C 19.253906 20.332156 19.495969 20.576172 19.792969 20.576172 C 20.089969 20.576172 20.332031 20.332156 20.332031 20.035156 C 20.332031 19.728156 20.084969 19.491094 19.792969 19.496094 z M 19.787109 19.582031 C 20.041109 19.582031 20.246094 19.782156 20.246094 20.035156 C 20.246094 20.283156 20.040109 20.488141 19.787109 20.494141 C 19.538109 20.494141 19.335938 20.288156 19.335938 20.035156 C 19.335938 19.782156 19.539109 19.582031 19.787109 19.582031 z M 19.589844 19.728516 L 19.589844 20.335938 L 19.705078 20.335938 L 19.705078 20.09375 L 19.8125 20.09375 C 19.8565 20.09375 19.866953 20.112484 19.876953 20.146484 C 19.876953 20.151484 19.895391 20.308891 19.900391 20.337891 L 20.025391 20.337891 C 20.011391 20.308891 20.001094 20.225781 19.996094 20.175781 C 19.982094 20.097781 19.977531 20.044062 19.894531 20.039062 C 19.938531 20.024063 20.011719 20.000672 20.011719 19.888672 C 20.011719 19.727672 19.871828 19.728516 19.798828 19.728516 L 19.589844 19.728516 z M 19.705078 19.826172 L 19.802734 19.826172 C 19.832734 19.826172 19.890625 19.825203 19.890625 19.908203 C 19.890625 19.942203 19.875875 19.997094 19.796875 19.996094 L 19.705078 19.996094 L 19.705078 19.826172 z M 16.160156 20.322266 C 15.357156 20.322266 14.880859 20.664516 14.880859 21.228516 C 14.880859 21.846516 15.357953 22.011844 16.126953 22.089844 C 17.046953 22.181844 17.119141 22.314141 17.119141 22.494141 C 17.119141 22.810141 16.865484 22.941406 16.271484 22.941406 C 15.526484 22.941406 15.362594 22.756719 15.308594 22.386719 C 15.303594 22.347719 15.268609 22.318359 15.224609 22.318359 L 14.859375 22.318359 C 14.815375 22.318359 14.777344 22.353344 14.777344 22.402344 C 14.777344 22.874344 15.034625 23.439453 16.265625 23.439453 C 17.168625 23.438453 17.679688 23.088609 17.679688 22.474609 C 17.679688 21.866609 17.270297 21.704891 16.404297 21.587891 C 15.528297 21.470891 15.441406 21.412031 15.441406 21.207031 C 15.441406 21.037031 15.513156 20.814453 16.160156 20.814453 C 16.739156 20.814453 16.954969 20.941078 17.042969 21.330078 C 17.052969 21.369078 17.080141 21.392578 17.119141 21.392578 L 17.484375 21.392578 C 17.508375 21.392578 17.528969 21.383141 17.542969 21.369141 C 17.557969 21.350141 17.5675 21.330641 17.5625 21.306641 C 17.5045 20.634641 17.061156 20.322266 16.160156 20.322266 z"
     id="path1"
     style="fill:#000080;fill-opacity:1" />
  <path
     style="fill:#2f88ff;stroke:#0000ff;stroke-width:2.4158;paint-order:fill markers stroke"
     d="M 2.6581036,447.46931 0.46457607,445.69357 0.17894885,391.02332 c -0.15709501,-30.06863 -0.0185462,-56.89684 0.30788609,-59.61824 0.42287953,-3.52546 1.30638416,-5.71873 3.07308366,-7.6288 1.3637637,-1.47445 18.7861904,-12.14702 38.7165044,-23.71682 44.13137,-25.61884 42.727019,-24.88665 46.544631,-24.26714 3.098509,0.50282 77.116266,42.98376 81.069776,46.5283 4.91973,4.41079 4.78977,2.66086 4.78977,64.4998 0,56.79289 -0.0246,57.55957 -1.92574,59.97646 -1.2308,1.56471 -2.82349,2.44406 -4.41347,2.43675 -3.81635,-0.0175 -38.22397,-20.3868 -40.81526,-24.16258 -2.07528,-3.0239 -2.09085,-3.30206 -2.12569,-37.9843 l -0.0351,-34.93809 -18.92525,-10.94007 -18.925273,-10.94008 -18.902579,11.0525 -18.902578,11.05249 -0.464576,35.8184 -0.464576,35.8184 -2.277371,2.42312 c -1.252553,1.33272 -5.642797,4.37328 -9.756097,6.75681 -23.739512,13.75627 -28.0145852,16.05483 -29.8602135,16.05483 -1.1193464,0 -3.0222629,-0.79909 -4.2287029,-1.77575 z"
     id="path2"
     transform="scale(0.04)" />
  <path
     style="fill:#2f88ff;stroke:#0000ff;stroke-width:2.4158;paint-order:fill markers stroke"
     d="M 280.60395,472.14703 C 278.3043,470.88509 260.3252,460.4604 240.65041,448.98106 213.94984,433.4025 204.34788,427.338 202.78746,425.06719 l -2.0906,-3.04235 0.003,-47.01706 c 0.003,-44.22071 0.10639,-47.18585 1.73395,-49.85479 1.31164,-2.15089 11.03726,-8.2527 40.18236,-25.21021 45.80995,-26.65364 42.14047,-24.70998 45.83607,-24.27854 1.77433,0.20714 19.18024,9.78895 42.78064,23.55039 29.70719,17.32233 40.22233,23.90747 41.4986,25.98862 1.60041,2.60971 1.70963,5.78561 1.71288,49.80453 l 0.003,47.01706 -2.0906,3.03845 c -2.93952,4.27228 -78.43621,48.35247 -83.85598,48.96092 -2.76469,0.31038 -4.78751,-0.17041 -7.89779,-1.87718 z"
     id="path3"
     transform="scale(0.04)" />
  <path
     style="fill:#2f88ff;stroke:#0000ff;stroke-width:2.4158;paint-order:fill markers stroke"
     d="m 474.79675,468.82859 c -56.66096,-32.60021 -71.10653,-41.47622 -72.70471,-44.67306 -1.48098,-2.96237 -1.6247,-7.31627 -1.62602,-49.25713 -0.001,-42.87774 0.1147,-46.22409 1.7058,-49.19087 1.45208,-2.70757 7.73109,-6.69785 42.01233,-26.69863 26.85568,-15.66848 41.18068,-23.51529 42.92907,-23.51529 3.15219,0 5.79175,1.31108 23.33499,11.59059 7.43555,4.35689 13.95405,7.92161 14.48554,7.92161 0.66052,0 0.96637,-22.20234 0.96637,-70.15099 0,-68.91212 0.0328,-70.1838 1.8583,-72.00929 3.39349,-3.39349 6.36423,-2.38859 25.10103,8.49083 12.85516,7.46428 18.3166,11.1551 19.59236,13.24042 1.71877,2.80945 1.76219,6.38175 1.53424,126.21521 l -0.2346,123.32394 -2.32288,2.2954 c -1.27758,1.26246 -19.66985,12.41465 -40.87172,24.78262 -28.90729,16.8629 -39.48115,22.58235 -42.27642,22.86754 -3.21578,0.3281 -5.06711,-0.39038 -13.48368,-5.2329 z m 32.05575,-60.29945 18.58304,-10.90582 V 374.9991 352.37488 l -18.9185,-11.0625 -18.91851,-11.0625 -18.92657,10.9494 -18.92657,10.94938 -0.0179,22.77249 -0.0179,22.7725 18.35075,10.81843 c 10.09292,5.95015 18.76888,10.84195 19.27991,10.87067 0.51104,0.0287 9.29152,-4.8554 19.5122,-10.85361 z"
     id="path4"
     transform="scale(0.04)" />
  <path
     style="fill:#2f88ff;stroke:#0000ff;stroke-width:2.4158;paint-order:fill markers stroke"
     d="m 682.70175,474.26591 c -1.40138,-0.38408 -19.69663,-11.06161 -40.65612,-23.72785 -35.52348,-21.46756 -38.2338,-23.28908 -39.96075,-26.85647 -1.77216,-3.6608 -1.85259,-5.772 -1.85259,-48.62732 0,-48.04669 0.0493,-48.59299 4.7583,-52.71498 1.21569,-1.06414 19.3532,-11.92229 40.30558,-24.12921 34.38633,-20.03359 38.50231,-22.19459 42.27642,-22.1963 3.78376,-0.002 7.84632,2.14316 42.741,22.56564 21.2079,12.41215 39.50121,23.44916 40.65182,24.52669 3.06069,2.86632 3.93712,7.26302 3.93712,19.75103 0,12.92919 -0.85846,16.85758 -4.39723,20.1221 -1.40858,1.29941 -11.4535,7.48792 -22.32204,13.75224 -16.15904,9.3136 -20.00828,11.18444 -21.11763,10.26377 -1.07967,-0.89604 -1.40825,-4.56295 -1.6095,-17.96165 l -0.25288,-16.83575 -18.7949,-10.97275 -18.79489,-10.97274 -19.03645,10.94815 -19.03644,10.94815 -0.0316,22.90819 -0.0316,22.9082 39.17322,23.08484 c 21.54527,12.69666 39.58593,23.75183 40.09036,24.56704 2.02942,3.27975 0.005,5.85817 -8.37913,10.67127 -4.49168,2.57861 -12.99051,7.48796 -18.88631,10.90969 -11.91612,6.91574 -15.03924,8.09154 -18.77374,7.06802 z"
     id="path5"
     transform="scale(0.04)" />
  <path
     style="fill:#2f88ff;stroke:#0000ff;stroke-width:2.4158;paint-order:fill markers stroke"
     d="m 676.8804,393.1339 -10.21373,-5.93694 -0.2583,-12.0438 -0.2583,-12.04379 10.71996,-6.2058 10.71996,-6.2058 9.97968,5.8785 9.97969,5.8785 0.25718,12.52936 0.25718,12.52935 -10.13245,5.77869 c -5.57285,3.17827 -10.29101,5.77868 -10.4848,5.77868 -0.19379,0 -4.94852,-2.67163 -10.56607,-5.93695 z"
     id="path6"
     transform="scale(0.04)" />
  <path
     style="fill:#2f88ff;stroke:#0000ff;stroke-width:2.4158;paint-order:fill markers stroke"
     d="m 381.41696,640.94705 c -1.02207,-0.27886 -7.80955,-4.06485 -15.0833,-8.41331 -11.86399,-7.09264 -14.68774,-9.53722 -11.01651,-9.53722 0.66027,0 3.13424,-1.02819 5.4977,-2.28485 l 4.29719,-2.28484 9.32477,5.53688 c 5.12862,3.04527 9.94581,5.53687 10.70488,5.53687 1.28106,0 64.68379,-36.17429 70.37515,-40.1524 l 2.55517,-1.78599 v -42.058 -42.058 l -35.75308,-20.5965 c -19.66418,-11.32807 -36.39051,-20.5965 -37.1696,-20.5965 -0.77909,0 -17.51667,9.28297 -37.19462,20.62882 l -35.77808,20.62882 0.24153,42.30667 0.24154,42.30667 10.86598,6.36784 c 6.6351,3.8884 12.32636,6.56373 14.61661,6.87092 4.42924,0.59409 8.97057,-1.04617 10.55756,-3.81324 0.81662,-1.42385 1.25356,-13.57714 1.59051,-44.23959 l 0.46458,-42.27642 5.84115,-0.2775 5.84116,-0.27751 -0.26625,44.87681 -0.26624,44.87681 -2.46406,4.19117 c -3.69391,6.28307 -8.73672,8.80216 -17.63694,8.8104 -6.63733,0.006 -7.65181,-0.27825 -15.79559,-4.42789 -14.3699,-7.32217 -21.44951,-11.99976 -23.52353,-15.54232 -1.83151,-3.12837 -1.91412,-4.85098 -2.17201,-45.29623 -0.28737,-45.06895 -0.0787,-47.624 4.2626,-52.18889 2.63145,-2.76698 69.79098,-41.83915 76.332,-44.40854 3.06505,-1.20398 4.43642,-1.2865 7.25493,-0.43655 4.92465,1.48508 75.52282,42.43153 77.99668,45.23753 1.12604,1.27722 2.48259,3.88947 3.01456,5.80501 1.30916,4.71405 1.30916,83.08777 0,87.80181 -0.53197,1.91554 -1.88852,4.52418 -3.01456,5.79696 -1.12604,1.2728 -18.77208,11.98213 -39.21343,23.7985 -36.62181,21.1697 -40.41746,22.96828 -45.52845,21.5738 z"
     id="path7"
     transform="scale(0.04)" />
  <path
     style="fill:#2f88ff;stroke:#0000ff;stroke-width:2.4158;paint-order:fill markers stroke"
     d="m 396.28339,584.85277 c -9.38182,-1.45862 -14.46979,-3.74114 -19.57666,-8.78231 -3.47732,-3.43259 -4.99736,-5.78994 -5.8072,-9.0061 -2.01123,-7.98733 -1.40286,-9.10849 4.94251,-9.10849 4.71848,0 5.93507,0.80737 6.96171,4.62 1.44479,5.36556 4.18714,8.17788 9.51815,9.76102 5.60041,1.66314 21.70137,1.89627 27.11708,0.39263 5.28832,-1.46827 8.90016,-5.42538 8.90016,-9.75097 0,-6.59852 -4.19272,-8.5352 -23.9528,-11.06414 -13.32845,-1.70581 -21.31949,-3.98373 -25.70234,-7.32669 -4.2075,-3.20921 -6.45383,-9.22543 -5.90695,-15.82018 0.77331,-9.32505 7.27369,-15.74292 19.09261,-18.85028 7.62158,-2.00381 23.97314,-1.23719 30.95173,1.45113 8.64168,3.32898 14.76112,11.04014 15.10699,19.03644 l 0.16686,3.85766 h -5.49749 -5.49748 l -1.30822,-3.92466 c -0.71952,-2.15856 -2.51916,-4.94359 -3.9992,-6.18896 -7.18147,-6.04282 -30.73715,-5.5105 -34.86399,0.78786 -0.86263,1.31654 -1.33267,3.65726 -1.15875,5.77041 0.24829,3.01692 0.7851,3.79546 3.54464,5.14088 1.78862,0.87204 9.94193,2.66184 18.11847,3.97733 17.79297,2.86263 23.49444,4.54152 27.98053,8.23934 4.21612,3.47528 5.93935,7.49992 5.91311,13.81023 -0.0577,13.86617 -11.36607,22.31405 -31.32495,23.40107 -4.47899,0.24394 -10.65232,0.0535 -13.71852,-0.42322 z"
     id="path8"
     transform="scale(0.04)" />
</svg>
