<?xml version="1.0" encoding="UTF-8" standalone="no"?>
<!-- Uploaded to: SVG Repo, www.svgrepo.com, Generator: SVG Repo Mixer Tools -->

<svg
   width="800px"
   height="800px"
   viewBox="0 0 24 24"
   version="1.1"
   id="svg1"
   sodipodi:docname="react.svg"
   inkscape:version="1.3.2 (091e20e, 2023-11-25, custom)"
   xmlns:inkscape="http://www.inkscape.org/namespaces/inkscape"
   xmlns:sodipodi="http://sodipodi.sourceforge.net/DTD/sodipodi-0.dtd"
   xmlns="http://www.w3.org/2000/svg"
   xmlns:svg="http://www.w3.org/2000/svg">
  <defs
     id="defs1" />
  <sodipodi:namedview
     id="namedview1"
     pagecolor="#ffffff"
     bordercolor="#000000"
     borderopacity="0.25"
     inkscape:showpageshadow="2"
     inkscape:pageopacity="0.0"
     inkscape:pagecheckerboard="0"
     inkscape:deskcolor="#d1d1d1"
     inkscape:zoom="1.07625"
     inkscape:cx="399.53542"
     inkscape:cy="400"
     inkscape:window-width="1920"
     inkscape:window-height="1057"
     inkscape:window-x="-8"
     inkscape:window-y="-8"
     inkscape:window-maximized="1"
     inkscape:current-layer="svg1" />
  <title
     id="title1">react_line</title>
  <g
     id="页面-1"
     stroke="none"
     stroke-width="1"
     fill="none"
     fill-rule="evenodd">
    <g
       id="Logo"
       transform="translate(-624.000000, -96.000000)"
       fill-rule="nonzero">
      <g
         id="react_line"
         transform="translate(624.000000, 96.000000)">
        <path
           d="M24,0 L24,24 L0,24 L0,0 L24,0 Z M12.5934901,23.257841 L12.5819402,23.2595131 L12.5108777,23.2950439 L12.4918791,23.2987469 L12.4918791,23.2987469 L12.4767152,23.2950439 L12.4056548,23.2595131 C12.3958229,23.2563662 12.3870493,23.2590235 12.3821421,23.2649074 L12.3780323,23.275831 L12.360941,23.7031097 L12.3658947,23.7234994 L12.3769048,23.7357139 L12.4804777,23.8096931 L12.4953491,23.8136134 L12.4953491,23.8136134 L12.5071152,23.8096931 L12.6106902,23.7357139 L12.6232938,23.7196733 L12.6232938,23.7196733 L12.6266527,23.7031097 L12.609561,23.275831 C12.6075724,23.2657013 12.6010112,23.2592993 12.5934901,23.257841 L12.5934901,23.257841 Z M12.8583906,23.1452862 L12.8445485,23.1473072 L12.6598443,23.2396597 L12.6498822,23.2499052 L12.6498822,23.2499052 L12.6471943,23.2611114 L12.6650943,23.6906389 L12.6699349,23.7034178 L12.6699349,23.7034178 L12.678386,23.7104931 L12.8793402,23.8032389 C12.8914285,23.8068999 12.9022333,23.8029875 12.9078286,23.7952264 L12.9118235,23.7811639 L12.8776777,23.1665331 C12.8752882,23.1545897 12.8674102,23.1470016 12.8583906,23.1452862 L12.8583906,23.1452862 Z M12.1430473,23.1473072 C12.1332178,23.1423925 12.1221763,23.1452606 12.1156365,23.1525954 L12.1099173,23.1665331 L12.0757714,23.7811639 C12.0751323,23.7926639 12.0828099,23.8018602 12.0926481,23.8045676 L12.108256,23.8032389 L12.3092106,23.7104931 L12.3186497,23.7024347 L12.3186497,23.7024347 L12.3225043,23.6906389 L12.340401,23.2611114 L12.337245,23.2485176 L12.337245,23.2485176 L12.3277531,23.2396597 L12.1430473,23.1473072 Z"
           id="MingCute"
           fill-rule="nonzero" />
        <path
           d="M12.5822,3.48869 C14.1408,2.2962 15.9785,1.59536 17.5002,2.47392 C19.022,3.35248 19.3339,5.2944 19.0804,7.24046 C19.0491,7.48134 19.0085,7.72885 18.9589,7.9825 C19.2034,8.06633 19.4381,8.15498 19.6624,8.24827 C21.4744,9.00184 23.0002,10.2429 23.0002,12 C23.0002,13.7572 21.4744,14.9982 19.6624,15.7518 C19.4381,15.8451 19.2034,15.9338 18.9589,16.0176 C19.0085,16.2713 19.0491,16.5188 19.0804,16.7597 C19.3339,18.7058 19.022,20.6477 17.5002,21.5263 C15.9785,22.4048 14.1408,21.704 12.5822,20.5115 C12.3893,20.3639 12.1952,20.205 12.0004,20.0352 C11.8054,20.2051 11.6113,20.364 11.4183,20.5117 C9.85966,21.7042 8.02196,22.405 6.50024,21.5265 C4.97853,20.6479 4.66662,18.706 4.92004,16.7599 C4.95142,16.519 4.99198,16.2714 5.04167,16.0176 C4.7971,15.9338 4.56243,15.8451 4.33809,15.7518 C2.52604,14.9982 1.00024,13.7572 1.00024,12 C1.00024,10.2429 2.52604,9.00184 4.33809,8.24827 C4.56243,8.15498 4.79709,8.06632 5.04165,7.98249 C4.99196,7.72877 4.95141,7.4812 4.92004,7.24026 C4.66662,5.29421 4.97853,3.35229 6.50024,2.47372 C8.02196,1.59516 9.85966,2.29601 11.4183,3.4885 C11.6113,3.63616 11.8054,3.79509 12.0004,3.965 C12.1952,3.79516 12.3893,3.6363 12.5822,3.48869 Z M6.97883,16.537 C6.94873,16.702 6.92357,16.8625 6.9033,17.0182 C6.66986,18.8108 7.10879,19.5684 7.50024,19.7944 C7.8917,20.0204 8.76726,20.0218 10.203,18.9233 C10.3277,18.8279 10.4541,18.7259 10.5819,18.6173 C10.1153,18.091 9.64978,17.5062 9.19061,16.8665 C8.40711,16.7887 7.66793,16.6779 6.97883,16.537 Z M17.0217,16.537 C16.3326,16.6779 15.5935,16.7887 14.81,16.8665 C14.3509,17.5061 13.8853,18.0909 13.4187,18.6173 C13.5465,18.7258 13.6728,18.8277 13.7975,18.9231 C15.2332,20.0216 16.1088,20.0202 16.5002,19.7942 C16.8917,19.5682 17.3306,18.8106 17.0972,17.018 C17.0769,16.8623 17.0518,16.7019 17.0217,16.537 Z M12.0002,9.00004 C11.4083,9.00004 10.8403,9.0176 10.2977,9.05097 C9.99744,9.5043 9.69817,9.98751 9.40217,10.5002 C9.10622,11.0128 8.83743,11.5135 8.59501,12.0001 C8.83743,12.4867 9.10622,12.9874 9.40217,13.5 C9.69814,14.0127 9.99738,14.4958 10.2976,14.9491 C10.8403,14.9825 11.4083,15 12.0002,15 C12.5922,15 13.1603,14.9825 13.703,14.9491 C14.0032,14.4959 14.3024,14.0128 14.5983,13.5002 C14.8943,12.9875 15.1631,12.4868 15.4056,12.0001 C15.1631,11.5134 14.8943,11.0127 14.5983,10.5 C14.3024,9.98739 14.0031,9.50425 13.7029,9.05098 C13.1602,9.0176 12.5922,9.00004 12.0002,9.00004 Z M5.56042,9.91982 C5.40252,9.97623 5.25102,10.0347 5.10605,10.095 C3.43688,10.7891 3.00024,11.548 3.00024,12 C3.00024,12.4521 3.43688,13.211 5.10605,13.9051 C5.25103,13.9654 5.40254,14.0239 5.56046,14.0803 C5.78295,13.413 6.05662,12.7175 6.38098,12.0001 C6.0566,11.2826 5.78292,10.5871 5.56042,9.91982 Z M18.4401,9.91984 C18.2176,10.5871 17.944,11.2826 17.6196,12.0001 C17.9439,12.7175 18.2176,13.413 18.4401,14.0803 C18.598,14.0238 18.7495,13.9654 18.8944,13.9051 C20.5636,13.211 21.0002,12.4521 21.0002,12 C21.0002,11.548 20.5636,10.7891 18.8944,10.095 C18.7495,10.0347 18.598,9.97625 18.4401,9.91984 Z M12.0001,10.5001 C12.8286,10.5001 13.5001,11.1717 13.5001,12.0001 C13.5001,12.8286 12.8286,13.5001 12.0001,13.5001 C11.1717,13.5001 10.5001,12.8286 10.5001,12.0001 C10.5001,11.1717 11.1717,10.5001 12.0001,10.5001 Z M7.50024,4.20578 C7.10879,4.43178 6.66986,5.18938 6.9033,6.982 C6.92357,7.13769 6.94872,7.29813 6.97881,7.46309 C7.66794,7.32214 8.40717,7.21137 9.19071,7.13356 C9.64984,6.49396 10.1154,5.90921 10.582,5.38292 C10.4541,5.27435 10.3277,5.17234 10.203,5.07692 C8.76726,3.97844 7.8917,3.97977 7.50024,4.20578 Z M16.5002,4.20597 C16.1088,3.97996 15.2332,3.97864 13.7975,5.07711 C13.6728,5.17248 13.5465,5.27444 13.4187,5.38295 C13.8853,5.90924 14.3508,6.49398 14.8099,7.13358 C15.5934,7.21139 16.3326,7.32216 17.0217,7.4631 C17.0518,7.2982 17.0769,7.13783 17.0972,6.9822 C17.3306,5.18957 16.8917,4.43198 16.5002,4.20597 Z"
           id="形状"
           fill="#09244B" />
      </g>
    </g>
  </g>
  <path
     style="fill:#2f88ff;stroke:#0000ff;stroke-width:2.4158;paint-order:fill markers stroke"
     d="m 247.73563,728.40522 c -42.70009,-8.48436 -71.70502,-40.16504 -81.93395,-89.49249 -4.92624,-23.75605 -5.06668,-54.3992 -0.39231,-85.60263 1.03348,-6.89895 2.10678,-14.21602 2.38512,-16.26016 l 0.50605,-3.71661 -13.30242,-4.99531 C 99.933731,507.66026 59.935738,476.53997 43.261037,441.40138 c -12.309507,-25.93981 -12.309507,-56.86295 0,-82.80276 10.655539,-22.45442 30.805714,-43.34713 59.257153,-61.4408 12.52171,-7.96317 36.02115,-19.3958 52.47993,-25.53185 l 13.30242,-4.9593 -0.50605,-3.71661 c -0.27834,-2.04414 -1.35351,-9.36121 -2.38928,-16.26016 -8.71499,-58.04796 -0.8647,-106.39072 22.31783,-137.43518 15.37279,-20.586189 37.80478,-34.107455 63.38358,-38.205529 9.02283,-1.445582 30.9261,-0.674147 40.64715,1.431596 30.62949,6.634856 64.18385,24.386079 97.4539,51.555923 5.63539,4.60211 10.47375,8.36747 10.75193,8.36747 0.27817,0 5.8366,-4.29793 12.35207,-9.55095 33.2157,-26.779814 65.56463,-43.767899 95.93456,-50.380159 10.90846,-2.375033 33.06432,-2.874696 43.154,-0.973217 66.91291,12.610259 98.14766,79.982276 82.73084,178.446856 -1.26919,8.10607 -2.30761,15.24338 -2.30761,15.86069 0,0.61732 1.0791,1.39322 2.398,1.72425 11.00766,2.76274 47.8679,19.8768 62.17808,28.86901 35.0479,22.02337 57.61752,48.38642 65.90383,76.98078 14.32847,49.44454 -11.251,97.76477 -70.22962,132.6654 -15.94974,9.43826 -47.38228,23.79371 -57.85229,26.42151 -1.3189,0.33103 -2.398,1.10693 -2.398,1.72425 0,0.61731 1.03842,7.75462 2.30761,15.86069 6.49653,41.49221 4.84853,78.41196 -4.78932,107.29357 -15.16829,45.45462 -50.9541,72.51393 -95.87877,72.49842 C 496.49415,729.8325 455.91791,712.25106 412.84959,677.5842 406.0246,672.09059 400.2423,667.59582 400,667.59582 c -0.2423,0 -6.0246,4.49477 -12.84959,9.98838 -35.19673,28.3308 -70.01117,45.80404 -101.40842,50.89652 -10.29975,1.67056 -29.40984,1.63261 -38.00636,-0.0755 z m 41.18038,-68.13398 c 16.3353,-5.55131 31.66638,-14.17074 50.73527,-28.52439 15.77719,-11.8759 15.59152,-8.97082 1.63802,-25.62897 -6.56405,-7.83637 -17.03688,-21.00136 -23.27296,-29.25552 l -11.33831,-15.00756 -4.44239,-0.54696 c -2.44331,-0.30084 -9.87792,-1.20775 -16.52135,-2.01535 -11.70455,-1.42287 -48.59401,-7.38646 -51.71558,-8.36042 -1.99209,-0.62154 -2.95698,3.7641 -5.03389,22.88005 -1.82747,16.82016 -1.41919,41.18861 0.86296,51.50728 3.34761,15.13594 7.92619,24.49639 15.26146,31.2004 6.79981,6.21465 10.96423,7.41744 24.36488,7.03722 9.09234,-0.25798 11.99364,-0.74781 19.46189,-3.28578 z m 256.27508,2.19386 c 11.8267,-3.51215 20.7121,-17.11761 25.47259,-39.00401 1.91289,-8.79449 1.6097,-43.64252 -0.5103,-58.65172 -0.94729,-6.70676 -1.98868,-12.60907 -2.31418,-13.11625 -0.37797,-0.58893 -4.78856,-0.14113 -12.20622,1.23928 -11.98076,2.22961 -37.23767,5.97239 -53.26092,7.89267 l -9.12621,1.09371 -10.81594,14.4096 c -5.94877,7.92529 -16.43804,21.12134 -23.30948,29.32456 l -12.49355,14.91496 3.63197,3.15307 c 15.45324,13.41561 38.99728,28.17087 55.20425,34.59699 13.73471,5.44585 29.73162,7.11574 39.72799,4.14714 z M 454.81998,498.86879 c 2.40227,-0.45284 4.02133,-2.47331 11.71666,-14.62163 16.86685,-26.627 47.2769,-80.81753 47.2769,-84.24716 0,-3.41456 -30.28704,-57.40252 -47.2769,-84.27313 l -8.92921,-14.12215 -5.11033,-0.73852 c -6.74438,-0.97466 -98.42044,-0.95609 -104.9942,0.0213 l -5.11033,0.75978 -8.92849,14.10088 C 316.56197,342.44187 286.18646,396.57305 286.18646,400 c 0,1.72098 19.11839,37.33928 30.17313,56.2137 6.40349,10.93307 24.47287,40.02731 26.22859,42.23173 1.27632,1.6025 103.92237,1.9897 112.2318,0.42336 z M 190.45281,456.67828 c 4.99552,-14.18763 13.99449,-36.81936 18.9807,-47.73504 1.83829,-4.02432 3.34233,-8.04877 3.34233,-8.94324 0,-0.89447 -1.45722,-4.82399 -3.23829,-8.73226 -4.79009,-10.51118 -17.47762,-42.58692 -20.43509,-51.66263 -1.4155,-4.34379 -2.92121,-8.27639 -3.34603,-8.7391 -1.01393,-1.1044 -17.6121,5.51533 -32.52008,12.96976 -25.23176,12.61662 -42.48706,27.11449 -49.74136,41.79259 -3.23818,6.552 -3.611134,8.03629 -3.611134,14.37164 0,6.33535 0.372954,7.81964 3.611134,14.37164 7.08375,14.333 24.34792,29.02571 48.34137,41.14105 12.25091,6.18601 31.15548,14.16312 32.9355,13.89768 0.72607,-0.10827 3.14454,-5.52853 5.68095,-12.73209 z m 435.48255,8.95282 c 36.2817,-14.58137 61.49294,-32.89398 70.56965,-51.25946 3.23818,-6.552 3.61113,-8.03629 3.61113,-14.37164 0,-6.33535 -0.37295,-7.81964 -3.61113,-14.37164 -9.14443,-18.50251 -35.00052,-37.17886 -71.49683,-51.64357 -8.16445,-3.23584 -10.21729,-3.74737 -10.86068,-2.70633 -0.43635,0.70601 -2.4984,6.17013 -4.58235,12.14247 -3.53104,10.11956 -12.50281,32.69096 -19.6196,49.35947 l -3.06654,7.18227 2.44918,5.82586 c 1.34704,3.20423 4.38955,10.42517 6.76114,16.04655 3.62385,8.58963 10.79435,27.32483 16.8027,43.90243 0.78718,2.1719 1.77359,3.9489 2.19201,3.9489 0.41844,0 5.30152,-1.82489 10.85132,-4.05531 z M 243.90244,247.13644 c 14.2195,-2.59374 29.20757,-4.89861 41.81185,-6.42987 6.64343,-0.80709 14.07804,-1.71357 16.52135,-2.01441 l 4.44239,-0.54696 11.33831,-15.00756 c 6.23608,-8.25416 16.67603,-21.37999 23.1999,-29.16852 6.52387,-7.78852 11.86158,-14.3707 11.86158,-14.62706 0,-0.96905 -18.88403,-15.45811 -27.86527,-21.38006 -11.65865,-7.68735 -26.82813,-15.28041 -37.17538,-18.60808 -10.32544,-3.32065 -25.02344,-4.19384 -32.7558,-1.94598 -9.41771,2.7378 -17.50208,12.00467 -22.14688,25.38629 -5.30956,15.29683 -6.85028,38.72114 -4.16967,63.39365 2.07285,19.07859 3.04196,23.49061 5.03389,22.91743 0.84775,-0.24393 5.30443,-1.12993 9.90373,-1.96887 z m 324.17276,0.7149 c 0.26865,-0.89431 1.22075,-6.64344 2.11579,-12.77585 2.04744,-14.02825 2.34174,-50.01383 0.47873,-58.53658 -4.87454,-22.29969 -13.66887,-35.56043 -25.95109,-39.13097 -8.25089,-2.3986 -22.54829,-1.42605 -33.47694,2.27718 -18.54536,6.2842 -42.92354,20.91636 -61.01655,36.62306 l -3.66569,3.18221 9.76081,11.53239 c 11.36636,13.42934 16.86272,20.33857 28.47952,35.80034 l 8.45978,11.25983 9.11935,1.08704 c 17.9164,2.13568 41.82176,5.70487 52.7895,7.88174 6.1324,1.21715 11.43524,2.26084 11.78407,2.31931 0.34884,0.0585 0.85406,-0.6254 1.12272,-1.5197 z"
     id="path1"
     transform="scale(0.03)" />
  <path
     style="fill:#2f88ff;stroke:#0000ff;stroke-width:2.4158;paint-order:fill markers stroke"
     d="m 387.71151,447.81506 c -13.09895,-3.52804 -25.99513,-13.93972 -31.7295,-25.61668 -3.01395,-6.13734 -5.65938,-16.5138 -5.65938,-22.19838 0,-5.68458 2.64543,-16.06104 5.65938,-22.19838 3.84438,-7.82836 13.3662,-17.50552 21.01506,-21.35791 20.17722,-10.16236 42.39078,-6.64739 57.9557,9.17065 7.09751,7.21292 11.32416,15.00897 13.353,24.62954 1.71892,8.15101 1.71892,11.36119 0,19.5122 -3.88853,18.43911 -18.13148,33.34297 -36.41559,38.10537 -6.57174,1.71172 -17.73058,1.69031 -24.17867,-0.0464 z"
     id="path2"
     transform="scale(0.03)" />
</svg>
