<?xml version="1.0" encoding="UTF-8" standalone="no"?>
<!-- Uploaded to: SVG Repo, www.svgrepo.com, Generator: SVG Repo Mixer Tools -->

<svg
   width="800px"
   height="800px"
   viewBox="-18.5 0 293 293"
   version="1.1"
   preserveAspectRatio="xMidYMid"
   id="svg1"
   sodipodi:docname="sass.svg"
   inkscape:version="1.3.2 (091e20e, 2023-11-25, custom)"
   xmlns:inkscape="http://www.inkscape.org/namespaces/inkscape"
   xmlns:sodipodi="http://sodipodi.sourceforge.net/DTD/sodipodi-0.dtd"
   xmlns="http://www.w3.org/2000/svg"
   xmlns:svg="http://www.w3.org/2000/svg">
  <defs
     id="defs1" />
  <sodipodi:namedview
     id="namedview1"
     pagecolor="#ffffff"
     bordercolor="#000000"
     borderopacity="0.25"
     inkscape:showpageshadow="2"
     inkscape:pageopacity="0.0"
     inkscape:pagecheckerboard="0"
     inkscape:deskcolor="#d1d1d1"
     inkscape:zoom="1.07625"
     inkscape:cx="399.53542"
     inkscape:cy="399.07085"
     inkscape:window-width="1920"
     inkscape:window-height="1057"
     inkscape:window-x="-8"
     inkscape:window-y="-8"
     inkscape:window-maximized="1"
     inkscape:current-layer="svg1" />
  <g
     id="g1"
     style="fill:#000080">
    <path
       d="M78.67,179.0285 C74.02,181.9365 67.014,186.6475 61.594,191.7715 C52.696,200.1745 50.834,211.8305 55.528,214.5535 C59.87,217.0705 70.007,214.0755 77.262,206.1625 C84.876,197.8545 88.016,187.3225 84.773,175.3665 C84.392,175.5935 84.018,175.8215 83.651,176.0335 L83.659,176.0495 L83.167,176.3285 C81.274,177.4585 79.727,178.3905 78.67,179.0285 L78.67,179.0285 Z M209.341,175.2565 C206.707,180.9805 206.575,182.8225 207.375,183.3955 C211.197,182.0225 217.52,178.7135 217.57,169.8465 C217.578,168.5185 217.285,167.0935 216.815,165.6045 C212.729,169.2225 210.374,173.0105 209.341,175.2565 L209.341,175.2565 Z M250.351,157.9495 C240.141,156.7595 232.174,158.1915 225.991,160.7675 C227.136,163.7475 228.016,166.8515 228.14,169.9785 C228.427,176.8415 223.703,181.9205 218.78,185.5465 C215.905,187.6605 212.846,189.0695 210.278,189.9205 C208.225,190.7865 205.496,191.6815 203.559,191.2865 C199.289,190.4185 197.016,186.6255 199.921,178.2585 C201.49,173.7305 206.016,166.8375 213.322,160.9005 C211.657,157.4725 209.801,153.9795 208.855,150.7705 C206.991,144.4445 206.428,140.6205 206.428,140.6205 C206.428,140.6205 200.406,153.1055 192.637,164.4595 C192.189,165.1195 191.742,165.7665 191.294,166.4115 C192.82,169.9575 194.022,173.7075 194.185,177.4885 C194.471,184.3505 191.5,189.5395 186.57,193.1575 C183.901,195.1255 181.054,196.4845 178.611,197.3495 C177.049,198.0315 173.872,199.1535 169.354,199.4555 C166.883,199.6245 164.506,199.4715 163.179,198.4655 C161.352,197.0855 161.132,195.3825 162.078,193.0555 C162.878,191.0805 168.863,184.2485 173.881,178.2665 C175.267,176.6145 176.587,174.9265 177.768,173.3635 L177.739,173.2965 C177.739,173.2975 178.648,172.1235 180.123,170.0755 C178.289,166.1265 175.964,162.0155 174.871,158.2875 C173.007,151.9615 172.443,148.1365 172.443,148.1365 C172.443,148.1365 166.339,163.7855 159.98,176.2775 C155.059,185.9525 151.772,191.8155 150.291,194.3845 L150.276,194.4875 C150.276,194.4875 150.055,194.8625 149.674,195.4495 L149.389,195.9255 L149.381,195.8815 C147.73,198.3195 144.026,203.0965 140.344,203.0965 C130.236,203.0965 133.947,182.5675 133.947,182.5675 C133.947,182.5675 130.992,190.1715 127.661,196.6965 C124.948,202.0175 122.476,206.5255 117.07,206.5255 C115.515,206.5255 113.05,206.4805 111.003,204.5345 C106.36,200.1235 102.81,188.9225 103.506,180.2475 C104.1,172.8715 105.237,167.7625 106.792,163.4995 C104.019,165.0105 100.814,166.8025 97.55,168.7185 L92.532,171.6755 L92.694,171.9695 C96.845,179.9995 97.953,197.5925 88.901,211.0975 C79.85,224.6095 63.001,232.8305 46.585,228.2655 C41.288,226.7895 33.286,215.8315 40.188,200.5575 C46.276,187.0885 70.607,174.3545 77.019,171.1765 L78.779,170.2075 C65.995,159.0215 34.071,143.9315 29.597,120.7525 C28.335,114.2275 31.394,98.6235 50.553,80.6855 C66.668,65.6025 89.085,54.0495 109.793,46.6875 C144.583,34.3205 181.341,41.6155 186.996,63.7965 C192.556,85.6105 173.632,111.7035 149.396,121.0835 C127.757,129.4575 109.866,128.1295 102.516,125.7155 C94.161,122.9705 89.261,117.4575 88.066,114.3455 C87.596,113.1275 86.788,111.0805 88.066,110.3755 C88.85,109.9425 89.165,110.0455 91.263,112.3645 C93.259,114.5665 101.283,120.4755 116.526,118.7645 C156.526,114.2805 180.621,83.1815 173.007,66.4465 C167.675,54.7325 136.845,49.4475 98.327,68.6555 C51.308,92.0985 48.756,111.4245 48.353,118.7645 C47.252,138.9555 73.255,149.5765 87.325,164.5925 L87.867,165.1875 C90.5,163.7345 93.281,162.2005 96.009,160.7035 C103.103,156.8055 109.793,153.1495 112.91,151.4465 C117.862,144.2485 127.91,136.3055 135.165,136.3055 C146.762,136.3055 142.779,152.9745 142.779,152.9745 C142.779,152.9745 143.014,152.2115 143.329,152.2045 C143.659,152.1955 144.936,150.0085 148.516,151.3145 C152.198,152.6655 151.361,155.2495 151.384,155.5135 C151.428,156.0265 147.034,170.8455 145.208,180.3505 C144.334,184.8865 144.84,188.1905 145.098,188.1905 C145.457,188.1905 146.191,187.0375 146.873,185.7975 L146.858,185.7605 C146.858,185.7605 147.371,184.8215 148.23,183.1335 L148.399,182.7805 L148.406,182.7965 C149.419,180.8145 150.841,177.9005 152.484,174.2895 C155.704,167.1925 167.99,139.7925 169.032,136.7615 C170.073,133.7305 170.616,130.5965 171.13,129.2525 C171.636,127.9095 175.979,126.8965 181.054,126.9335 C186.13,126.9705 186.645,129.1355 186.68,129.5835 C186.717,130.0305 184.267,136.0425 183.702,140.2915 C183.145,144.5415 183.681,146.6615 184.143,150.2295 C184.444,152.5625 185.903,155.5215 187.628,158.8755 C192.88,150.2875 202.121,133.8615 203.009,129.2595 C203.617,126.1115 204.593,123.0945 205.107,121.7505 C205.62,120.4075 209.956,119.3955 215.031,119.4315 C220.107,119.4685 220.62,121.6335 220.657,122.0815 C220.694,122.5295 218.236,128.5405 217.679,132.7905 C217.121,137.0325 217.658,139.1615 218.119,142.7285 C218.516,145.7815 220.877,149.8845 223.218,154.5515 C229.606,151.4025 237.125,149.2895 245.928,149.2455 C249.573,149.2245 253.806,149.5905 255.992,150.2725 L255.992,80.0535 C255.992,75.0995 253.453,70.5345 249.163,68.0615 L134.616,1.8555 C130.333,-0.6185 125.088,-0.6185 120.804,1.8555 L6.573,68.0295 C2.289,70.5035 0,75.0765 0,80.0225 L0,212.4915 C0,217.4375 2.303,222.0105 6.58,224.4835 L120.995,290.7095 C125.278,293.1915 130.472,293.1915 134.755,290.7095 L249.222,224.4835 C253.505,222.0025 256,217.4365 256,212.4915 L256,158.9555 C254.547,158.5275 252.42,158.1905 250.351,157.9495 L250.351,157.9495 Z M127.119,151.0125 C124.662,153.7645 120.474,160.8615 118.515,166.8015 C114.62,178.5955 116.307,190.5815 119.065,191.3015 C122.285,192.1445 127.567,176.3795 130.096,170.2135 C131.681,166.3525 137.843,149.2155 136.493,146.9255 C135.439,145.1345 131.073,146.5805 127.119,151.0125 L127.119,151.0125 Z M171.682,190.7645 C171.682,190.7645 170.905,191.4995 171.241,191.7045 C171.696,191.9765 172.679,191.6235 173.75,191.0655 C176.78,189.1585 183.579,184.4015 183.594,177.3625 C183.594,177.1575 183.586,176.9595 183.572,176.7465 C181.995,178.8165 180.542,180.6585 179.288,182.2215 C177.146,184.8855 171.682,190.7645 171.682,190.7645 L171.682,190.7645 Z"
       fill="#8CC84B"
       id="path1"
       style="fill:#000080" />
  </g>
  <path
     style="fill:#2f88ff;stroke:#0000ff;stroke-width:2.4158;paint-order:fill markers stroke"
     d="m 391.58604,797.36012 c -6.31786,-1.60566 -0.26073,1.82897 -172.77071,-97.96775 C 102.72462,632.2341 65.369735,610.20194 61.96399,606.88041 c -2.6382,-2.57297 -5.684705,-6.92325 -7.433218,-10.61433 l -2.962828,-6.25447 V 399.53542 209.05923 l 2.24157,-5.57491 C 58.660418,191.41984 50.969831,196.26774 224.79196,95.702671 311.35521,45.62137 384.09867,3.8767328 386.44408,2.9368098 c 6.56777,-2.63202054 16.15447,-2.99362862 22.86153,-0.86233 3.07394,0.9768081 16.45373,8.0643132 29.73287,15.7500122 13.27912,7.685699 84.77104,49.00995 158.87093,91.831668 74.09988,42.82172 136.12831,79.00325 137.84095,80.40339 4.76105,3.89234 9.27936,10.85701 11.31128,17.43559 1.77809,5.7568 1.83499,8.98104 1.83499,103.97702 v 98.03599 l -2.55517,-0.63126 c -1.40534,-0.3472 -10.0813,-0.85087 -19.2799,-1.11929 -23.76202,-0.69336 -39.46694,2.03398 -59.37314,10.31083 l -7.52582,3.12918 -3.43939,-6.6499 c -6.11739,-11.82776 -9.27302,-20.29554 -10.59255,-28.424 -2.48247,-15.29223 -1.50888,-25.06055 4.30745,-43.21796 3.32044,-10.36572 3.126,-12.79314 -1.20651,-15.06154 -6.1939,-3.24299 -27.31393,-2.4311 -35.06203,1.34786 -4.02647,1.96381 -4.94094,3.86684 -8.45193,17.58856 -1.53999,6.01862 -4.48318,14.78358 -6.54043,19.47768 -4.0465,9.23307 -19.33392,37.66103 -29.87864,55.56129 l -6.55903,11.13434 -3.63349,-7.88231 c -4.20302,-9.11783 -5.9949,-16.58444 -6.79727,-28.32366 -0.69861,-10.22103 0.37485,-17.18891 4.81418,-31.24898 3.89089,-12.32306 3.77431,-14.81183 -0.80657,-17.21945 -6.44318,-3.3864 -30.33165,-2.0873 -36.5509,1.98771 -1.42868,0.93611 -2.68695,3.26554 -3.65413,6.76492 -5.27984,19.10301 -7.13453,23.59941 -38.61127,93.60662 -17.7293,39.43165 -28.58608,61.46301 -30.11333,61.10816 -1.43729,-0.33396 -1.64283,-7.38122 -0.45343,-15.54661 1.10637,-7.59536 8.43812,-38.03503 14.32879,-59.48974 3.85028,-14.02329 3.99586,-16.0809 1.37361,-19.41454 -4.10098,-5.21357 -13.56691,-7.27585 -18.51451,-4.03366 l -2.33638,1.53106 0.35252,-10.29936 c 0.76502,-22.35096 -6.21831,-32.29719 -22.71199,-32.34826 -13.90393,-0.043 -30.10943,8.5502 -47.15121,25.00272 -4.00647,3.86794 -8.73521,9.00411 -10.50832,11.4137 -2.7381,3.72099 -5.56031,5.66439 -18.73176,12.89881 -8.52937,4.68477 -23.79275,13.0871 -33.91863,18.67185 l -18.41069,10.1541 -9.03725,-8.65105 c -4.97049,-4.75809 -14.62757,-13.04131 -21.46017,-18.40717 -42.57449,-33.43503 -50.13825,-40.03291 -60.0553,-52.38622 -12.43439,-15.48907 -17.78364,-30.55776 -16.8309,-47.41221 2.43226,-43.02798 40.82693,-84.00754 118.43622,-126.40985 29.71087,-16.23271 58.14802,-27.78848 87.09281,-35.3912 55.57315,-14.59698 107.05172,-9.67397 127.94216,12.2354 14.06176,14.74762 11.57155,43.79849 -6.02072,70.23804 -25.55209,38.40243 -73.32053,67.58668 -126.56126,77.32295 -37.68228,6.89105 -65.74573,1.76322 -84.52508,-15.44465 -5.05139,-4.62868 -6.50282,-5.49396 -8.41185,-5.01483 -1.98077,0.49715 -2.3071,1.11037 -2.3071,4.33549 0,12.53556 17.50577,29.63176 38.00047,37.1114 28.35514,10.34835 75.25239,7.61845 119.14933,-6.9357 30.49173,-10.10962 50.64768,-22.46555 72.82514,-44.64301 15.34419,-15.34419 23.26796,-26.08 31.553,-42.75079 10.40117,-20.92877 14.04408,-36.4117 13.22624,-56.2137 -0.55801,-13.511 -2.07137,-19.93695 -7.11168,-30.19745 -12.04123,-24.51211 -37.91652,-40.51181 -77.56968,-47.96435 -13.25962,-2.49205 -45.43324,-3.425 -61.49354,-1.78314 -39.18627,4.00606 -77.00474,15.96213 -126.26197,39.91692 -65.10745,31.66309 -111.19624,68.19436 -139.60693,110.6564 -14.00093,20.9255 -22.94947,47.43788 -21.27705,63.03883 2.67771,24.97879 20.28939,51.70077 51.14531,77.6021 13.2313,11.10674 24.41476,19.44715 47.49104,35.41793 10.22068,7.07359 21.87279,15.40346 25.89357,18.51084 4.02079,3.10738 7.85338,6.04367 8.51686,6.5251 0.86497,0.62762 -3.43861,3.40212 -15.20832,9.80475 -31.02166,16.87554 -52.50072,31.89704 -69.04045,48.28379 -5.43664,5.38636 -11.76966,12.72651 -14.07336,16.31143 -16.79236,26.13148 -16.76097,58.59196 0.0742,76.77599 6.14465,6.63695 9.56951,8.52372 19.01299,10.47432 8.9495,1.84857 27.88071,1.92482 37.15863,0.14966 41.65146,-7.96924 76.17363,-40.71757 87.28134,-82.79662 2.82075,-10.68573 2.93842,-11.86754 3.00377,-30.16901 0.0602,-16.86221 -0.17289,-19.99501 -2.03172,-27.30489 -1.15486,-4.5415 -2.89916,-10.0645 -3.87623,-12.27334 l -1.77649,-4.01607 16.888,-9.74148 c 17.4102,-10.0427 20.89595,-11.82138 19.8499,-10.12883 -1.39756,2.26128 -5.32826,20.18228 -6.64477,30.29501 -3.29536,25.31329 -0.56508,44.87817 9.0145,64.59689 5.22917,10.76379 11.43945,17.37417 18.15732,19.32711 6.36815,1.85127 14.18821,1.31105 19.38269,-1.33898 7.64756,-3.90149 14.08054,-13.47099 24.55701,-36.53024 3.56802,-7.8534 7.07686,-15.53326 7.79743,-17.06636 1.20126,-2.55584 1.31506,-1.72181 1.36955,10.03725 0.0711,15.34103 1.75063,23.94297 5.754,29.46946 3.01797,4.16618 8.82744,7.37466 13.35304,7.37466 6.36695,0 14.72247,-5.89864 22.26232,-15.71623 11.3308,-14.75376 44.52436,-81.17276 60.95436,-121.96726 2.20758,-5.48124 4.1252,-9.85446 4.26138,-9.71827 0.1362,0.1362 1.71884,5.9879 3.51698,13.0038 3.70041,14.43796 6.25644,21.31623 12.7759,34.3798 l 4.54961,9.11641 -3.47155,4.82088 c -4.40922,6.12299 -7.82029,10.35638 -24.47284,30.37255 -21.50283,25.84615 -22.30415,27.05842 -22.30415,33.74261 0,8.07666 5.52083,11.78585 17.54231,11.78585 24.81899,0 53.15087,-13.66335 64.40416,-31.05958 9.23503,-14.27625 9.92891,-34.50573 1.88188,-54.86534 l -1.82764,-4.6241 5.30476,-7.91945 c 8.29443,-12.38269 18.67097,-29.81931 27.19675,-45.7011 l 7.81236,-14.55283 2.52843,10.56866 c 3.48506,14.56734 5.57037,20.67339 10.95496,32.07754 l 4.63847,9.82391 -9.65835,9.68828 c -20.15379,20.21624 -30.09522,39.52208 -29.36299,57.02165 0.35144,8.39888 1.51922,10.97871 6.72765,14.86241 2.11679,1.5784 3.90632,1.90922 10.16326,1.87883 6.72083,-0.0326 8.73947,-0.49358 17.55435,-4.00835 19.2881,-7.69078 35.20801,-20.90414 42.17322,-35.00334 3.61103,-7.30956 3.6156,-7.33331 3.56236,-18.51382 -0.0451,-9.46979 -0.42309,-12.30281 -2.45302,-18.38488 l -2.39972,-7.19003 8.52363,-2.73036 c 17.00984,-5.44874 39.30569,-7.04638 59.09259,-4.23436 5.36168,0.76197 10.49292,1.62167 11.40274,1.91044 1.57144,0.49875 1.64158,4.39349 1.40132,77.80778 l -0.25291,77.28276 -2.18613,5.41954 c -1.4037,3.47984 -4.06411,7.3842 -7.43322,10.9088 -4.81503,5.03725 -18.29183,13.0367 -163.66753,97.14854 -87.13124,50.41262 -160.37069,92.42214 -162.75431,93.35451 -5.83456,2.2822 -15.0068,2.91982 -20.80483,1.44627 z"
     id="path2"
     transform="matrix(0.36625,0,0,0.36625,-18.5,0)" />
  <path
     style="fill:#2f88ff;stroke:#0000ff;stroke-width:2.4158;paint-order:fill markers stroke"
     d="m 373.14363,519.40155 c -4.54787,-6.94093 -5.97949,-28.78314 -2.99807,-45.74167 3.04374,-17.313 10.62207,-35.69229 21.56754,-52.30645 8.51097,-12.91884 19.8467,-21.7775 27.09908,-21.17742 3.45838,0.28616 3.48984,0.32565 3.77196,4.7337 0.50719,7.92482 -6.34627,30.90111 -19.0447,63.84755 -12.95854,33.62125 -18.23255,45.02563 -23.31075,50.4065 -2.99171,3.17003 -5.11704,3.24136 -7.08506,0.23779 z"
     id="path3"
     transform="matrix(0.36625,0,0,0.36625,-18.5,0)" />
  <path
     style="fill:#2f88ff;stroke:#0000ff;stroke-width:2.4158;paint-order:fill markers stroke"
     d="m 203.76379,585.75594 c -5.96525,-2.95276 -8.10947,-8.09201 -7.46818,-17.89968 1.75116,-26.78169 23.03928,-50.15435 74.05524,-81.30676 5.85905,-3.57777 10.94348,-6.32541 11.29872,-6.10586 1.32754,0.82047 3.04351,14.2004 3.02944,23.6214 -0.0329,22.02262 -8.32168,41.94957 -24.49226,58.88146 -8.26393,8.653 -15.74849,14.19297 -25.19372,18.64804 -13.20349,6.22774 -24.11686,7.68198 -31.22924,4.1614 z"
     id="path4"
     transform="matrix(0.36625,0,0,0.36625,-18.5,0)" />
  <path
     style="fill:#2f88ff;stroke:#0000ff;stroke-width:2.4158;paint-order:fill markers stroke"
     d="m 518.4669,522.98548 c 0,-0.22979 4.25978,-5.10355 9.46617,-10.83057 5.2064,-5.72701 12.41894,-14.15063 16.02788,-18.71915 5.41458,-6.85428 6.6141,-7.94692 6.86145,-6.25008 0.99801,6.84634 -7.20601,19.46146 -18.42646,28.33389 -6.22918,4.92565 -13.92904,9.05275 -13.92904,7.46591 z"
     id="path5"
     transform="matrix(0.36625,0,0,0.36625,-18.5,0)" />
  <path
     style="fill:#2f88ff;stroke:#0000ff;stroke-width:2.4158;paint-order:fill markers stroke"
     d="m 616.42164,495.47154 c 0.94231,-5.89292 7.56786,-20.28535 12.61666,-27.4067 5.17855,-7.30437 12.6489,-14.84124 13.68322,-13.80506 0.39399,0.3947 0.71079,4.96792 0.70401,10.16272 -0.0108,8.2695 -0.32073,10.10638 -2.49017,14.75805 -3.24016,6.94747 -9.65723,13.7051 -16.45497,17.32826 -7.66844,4.08724 -8.8538,3.93467 -8.05875,-1.03727 z"
     id="path6"
     transform="matrix(0.36625,0,0,0.36625,-18.5,0)" />
</svg>
