<?xml version="1.0" encoding="UTF-8" standalone="no"?>
<!-- Uploaded to: SVG Repo, www.svgrepo.com, Generator: SVG Repo Mixer Tools -->

<svg
   width="800px"
   height="800px"
   viewBox="0 -142 512 512"
   version="1.1"
   preserveAspectRatio="xMidYMid"
   id="svg6"
   sodipodi:docname="sqlite.svg"
   inkscape:version="1.3.2 (091e20e, 2023-11-25, custom)"
   xmlns:inkscape="http://www.inkscape.org/namespaces/inkscape"
   xmlns:sodipodi="http://sodipodi.sourceforge.net/DTD/sodipodi-0.dtd"
   xmlns="http://www.w3.org/2000/svg"
   xmlns:svg="http://www.w3.org/2000/svg">
  <sodipodi:namedview
     id="namedview6"
     pagecolor="#ffffff"
     bordercolor="#000000"
     borderopacity="0.25"
     inkscape:showpageshadow="2"
     inkscape:pageopacity="0.0"
     inkscape:pagecheckerboard="0"
     inkscape:deskcolor="#d1d1d1"
     inkscape:zoom="1.07625"
     inkscape:cx="399.53542"
     inkscape:cy="400"
     inkscape:window-width="1920"
     inkscape:window-height="1057"
     inkscape:window-x="-8"
     inkscape:window-y="-8"
     inkscape:window-maximized="1"
     inkscape:current-layer="svg6" />
  <defs
     id="defs3">
    <linearGradient
       x1="57.6615627%"
       y1="2.04644676%"
       x2="57.6615584%"
       y2="94.4387516%"
       id="linearGradient-1">
      <stop
         stop-color="#97D9F6"
         offset="0%"
         id="stop1" />
      <stop
         stop-color="#0F80CC"
         offset="92.024499%"
         id="stop2" />
      <stop
         stop-color="#0F80CC"
         offset="100%"
         id="stop3" />
    </linearGradient>
  </defs>
  <g
     id="g6">
    <path
       d="M194.519337,112.044206 C187.698564,112.044206 182.152486,114.063211 177.900552,118.099455 C173.648619,122.139234 171.491713,127.434452 171.491713,133.922666 C171.491713,137.285148 172.027403,140.350953 173.082873,143.160235 C174.138343,145.975174 175.780773,148.582909 177.98895,150.939241 C180.197127,153.297694 184.617017,156.501413 191.20442,160.5746 C199.287514,165.509134 204.577238,169.513908 207.116022,172.640884 C209.656575,175.765215 210.917127,179.03947 210.917127,182.453039 C210.917127,187.023558 209.412597,190.671912 206.320442,193.414365 C203.222983,196.158062 199.080663,197.524862 193.944751,197.524862 C188.527735,197.524862 183.809061,195.6153 179.756906,191.823204 C175.704751,188.025635 173.659227,183.002703 173.61326,176.707182 L171.093923,176.707182 L171.093923,199.558011 L173.61326,199.558011 C174.38232,197.394203 175.44663,196.287293 176.839779,196.287293 C177.509834,196.287293 179.079779,196.749436 181.524862,197.61326 C187.474033,199.730026 192.358895,200.751381 196.198895,200.751381 C202.816354,200.751381 208.464972,198.433775 213.171271,193.723757 C217.870497,189.015874 220.243094,183.337017 220.243094,176.707182 C220.243094,171.56632 218.676685,166.992435 215.60221,163.005539 C212.527735,159.013848 206.548508,154.370829 197.61326,149.038688 C189.92442,144.419175 184.933481,140.65681 182.629834,137.723771 C180.322652,134.794961 179.138122,131.555204 179.138122,128.000014 C179.138122,124.154703 180.550718,121.066084 183.337017,118.762438 C186.123315,116.457024 189.774144,115.314924 194.342541,115.314924 C199.483757,115.314924 203.769282,116.84067 207.160221,119.911609 C210.547624,122.987852 212.506519,127.250747 213.082873,132.729296 L215.60221,132.729296 L215.60221,112.928184 L213.259669,112.928184 C212.97326,113.937687 212.708066,114.58299 212.464088,114.872935 C212.227182,115.161112 211.77105,115.314924 211.093923,115.314924 C210.278895,115.314924 208.825635,114.971941 206.762431,114.29835 C202.342541,112.809731 198.267403,112.044206 194.519337,112.044206 L194.519337,112.044206 Z M276.861878,112.044206 C268.550718,112.044206 261.005083,114.003101 254.187845,117.922659 C247.36,121.835145 241.955359,127.268073 237.966851,134.187859 C233.98011,141.107101 232,148.455772 232,156.287307 C232,166.808751 235.443978,176.182269 242.38674,184.39779 C249.333039,192.608361 257.656575,197.724471 267.314917,199.690608 C269.523094,200.841193 272.682431,203.811359 276.81768,208.618785 C281.478011,214.044103 285.420552,217.957127 288.662983,220.287293 C291.901878,222.618689 295.398895,224.327425 299.093923,225.458564 C302.792486,226.584935 306.791602,227.138122 311.116022,227.138122 C316.352707,227.138122 321.041326,226.227978 325.171271,224.353591 L324.243094,222.055249 C321.845746,222.919963 319.289282,223.337017 316.596685,223.337017 C312.94232,223.337017 309.249061,222.131978 305.546961,219.712707 C301.850166,217.287425 297.226961,212.660162 291.712707,205.834254 C289.120884,202.563536 287.331713,200.499978 286.320442,199.690608 C296.887514,197.62705 305.577017,192.505635 312.353591,184.309392 C319.128398,176.116685 322.519337,166.766518 322.519337,156.287307 C322.519337,143.84459 318.092376,133.387499 309.303867,124.861886 C300.508287,116.335388 289.691934,112.044206 276.861878,112.044206 L276.861878,112.044206 Z M328.265193,112.044206 L328.397719,114.740339 C333.931421,114.740339 337.030648,116.370394 337.723686,119.646416 C337.981808,120.818571 338.100261,122.982902 338.121476,126.099455 L338.077348,185.723757 C338.031381,190.176884 337.396685,193.02011 336.176796,194.254144 C334.955138,195.479337 332.890166,196.24663 329.900552,196.552486 L329.768027,199.248619 L384.928248,199.248619 L386.342612,185.723757 L383.823275,185.723757 C383.103717,189.408177 381.454214,192.047565 378.8288,193.546961 C376.196314,195.057319 371.541286,195.801105 364.81775,195.801105 L359.602281,195.801105 C353.552336,195.801105 350.051783,193.61396 349.127143,189.21547 C348.936203,188.345282 348.870789,187.412324 348.861949,186.38674 L349.082944,126.099455 C349.081529,121.653399 349.643386,118.67404 350.806701,117.215477 C351.982391,115.762217 354.10217,114.948957 357.171341,114.740339 L357.038815,112.044206 L328.265335,112.044206 L328.265193,112.044206 Z M277.745856,115.314924 C287.119558,115.314924 294.773039,119.00677 300.685083,126.453046 C306.595359,133.901988 309.524862,144.111211 309.524862,157.038688 C309.524862,169.288656 306.552928,179.097289 300.596685,186.475138 C294.640442,193.850696 286.712928,197.524862 276.861878,197.524862 C267.398011,197.524862 259.723315,193.736133 253.834254,186.121547 C247.950497,178.506961 245.038674,168.620906 245.038674,156.464103 C245.038674,143.971727 247.985856,133.971631 253.922652,126.497245 C259.855912,119.030814 267.801105,115.314924 277.745856,115.314924 L277.745856,115.314924 Z M404.596685,128.132611 C403.251271,128.132611 402.225856,128.586975 401.458564,129.502777 C400.673591,130.415028 400.433149,131.52 400.707182,132.861893 C400.972376,134.163631 401.706077,135.3045 402.872928,136.265208 C404.032707,137.22501 405.28442,137.723771 406.629834,137.723771 C407.93105,137.723771 408.922873,137.225038 409.635359,136.265208 C410.347845,135.3045 410.565304,134.163631 410.298343,132.861893 C410.024309,131.52 409.315359,130.415028 408.220994,129.502777 C407.114254,128.586975 405.897901,128.132611 404.596685,128.132611 L404.596685,128.132611 Z M440.972376,137.281782 C438.686409,146.075934 433.730829,150.834917 426.121547,151.602224 L426.209945,154.121561 L435.093923,154.121561 L434.917127,183.911602 C434.931271,189.004729 435.086851,192.395669 435.447514,194.121547 C436.322652,198.253444 439.020552,200.353591 443.535912,200.353591 C450.068508,200.353591 456.921105,196.374276 464.088398,188.41989 L461.922652,186.563536 C456.747845,191.801819 452.172376,194.430939 448.176796,194.430939 C445.721105,194.430939 444.198895,193.018696 443.624309,190.232044 C443.466961,189.555271 443.403315,188.764471 443.403315,187.845304 L443.491713,154.121561 L457.060773,154.121561 L456.928248,150.099462 L443.535982,150.099462 L443.535982,137.281782 L440.972446,137.281782 L440.972376,137.281782 Z M493.436464,148.508301 C485.84663,148.508301 479.672928,152.192721 474.872928,159.513826 C470.09768,166.847307 468.619669,174.97228 470.497238,183.911602 C471.60221,189.14775 473.803315,193.20593 477.171271,196.066298 C480.533923,198.925436 484.8,200.353591 489.900552,200.353591 C494.649282,200.353591 501.261436,199.151211 504.044199,196.729282 C506.834033,194.308766 509.404641,190.38744 511.779006,185.016575 L509.878453,183.027624 C506.091492,189.995138 498.448619,193.502762 492.685083,193.502762 C484.761105,193.502762 479.908066,189.155359 478.099448,180.508287 C477.864309,179.404545 477.689282,178.218785 477.569061,176.972376 C486.995801,175.479867 494.14011,172.836943 498.961326,169.016575 C503.779006,165.194099 508.616133,161.142283 507.712707,156.861893 C507.175249,154.318328 505.854586,152.318416 503.823204,150.806644 C501.765304,149.295579 496.422541,148.508301 493.436464,148.508301 L493.436464,148.508301 Z M410.475138,148.817694 L394.121547,152.5746 L394.121547,155.491727 L399.779006,154.784545 C402.519337,154.784545 404.131713,156.02548 404.640884,158.497252 C404.812376,159.324485 404.920221,160.486202 404.950276,161.944766 L404.773481,188.685083 C404.727514,192.385414 404.317348,194.536479 403.491713,195.18232 C402.659006,195.829392 400.463204,196.154696 396.906077,196.154696 L396.81768,198.674033 L422.762431,198.674033 L422.718303,196.154696 C419.113441,196.154696 416.776203,195.870239 415.734877,195.314917 C414.711231,194.763145 414.005817,193.758946 413.701728,192.220994 C413.46659,191.112656 413.364049,189.202924 413.348137,186.563536 L413.436535,148.817694 L410.475209,148.817694 L410.475138,148.817694 Z M489.281768,153.76797 C490.860552,153.76797 492.386298,154.377731 493.922652,155.580125 C495.43779,156.778275 496.360663,158.110593 496.662983,159.558025 C498.142762,166.667159 491.84,171.582048 477.657459,174.320442 C477.252597,169.136626 478.150718,164.430865 480.441989,160.17681 C482.71558,155.926814 485.676906,153.76797 489.281768,153.76797 L489.281768,153.76797 Z"
       fill="#003B57"
       id="path3" />
    <path
       d="M157.887646,9.95179492 L17.1498785,9.95179492 C7.71748066,9.95179492 1.42108547e-14,17.6706899 1.42108547e-14,27.1027341 L1.42108547e-14,182.31016 C1.42108547e-14,191.741666 7.71748066,199.459331 17.1498785,199.459331 L109.843448,199.459331 C108.79135,153.338017 124.54117,63.8308448 157.887646,9.95179492 L157.887646,9.95179492 Z"
       fill="#0F80CC"
       id="path4" />
    <path
       d="M152.774718,14.9551098 L17.1498785,14.9551098 C10.4523315,14.9551098 5.00207735,20.4039496 5.00207735,27.1027341 L5.00207735,170.986233 C35.7181878,159.197504 81.8193467,149.025535 113.695413,149.487509 C120.100971,115.994079 138.926844,50.3540911 152.774718,14.9551098 L152.774718,14.9551098 Z"
       fill="url(#linearGradient-1)"
       id="path5" />
    <path
       d="M190.71505,4.8724579 C181.076155,-3.7233432 169.405878,-0.270525525 157.887646,9.95179492 C156.178033,11.470469 154.471956,13.1553308 152.774718,14.9551098 C133.070851,35.8576513 114.781348,74.5758833 109.099138,104.144944 C111.312619,108.633784 113.04168,114.361961 114.180243,118.737651 C114.471956,119.860303 114.735381,120.914005 114.945768,121.810358 C115.446099,123.931729 115.714829,125.307375 115.714829,125.307375 C115.714829,125.307375 115.538033,124.638911 114.813171,122.536988 C114.675271,122.133894 114.521459,121.693673 114.339359,121.175662 C114.261569,120.96174 114.153724,120.70185 114.035271,120.424281 C112.749967,117.436436 109.194608,111.130137 107.629967,108.384502 C106.291624,112.332347 105.108862,116.025607 104.118807,119.367044 C108.635934,127.631883 111.388641,141.795684 111.388641,141.795684 C111.388641,141.795684 111.149967,140.877762 110.014939,137.674056 C109.007204,134.840546 103.987978,126.046381 102.799028,123.990425 C100.765171,131.498587 99.9570387,136.567669 100.68579,137.801872 C102.100685,140.193393 103.448221,144.319802 104.631514,148.88325 C107.304663,159.163729 109.162785,171.678918 109.162785,171.678918 C109.162785,171.678918 109.222895,172.508259 109.323669,173.784553 C108.952398,182.417835 109.17516,191.368811 109.843448,199.459331 C110.729193,210.169253 112.396376,219.369526 114.521459,224.293452 L115.96411,223.506896 C112.843669,213.805939 111.576044,201.092568 112.131182,186.430911 C112.970961,164.020133 118.128088,136.993747 127.65737,108.824723 C143.756376,66.3018502 166.092729,32.1838391 186.535602,15.8903585 C167.903116,32.7177618 142.684994,87.186712 135.135823,107.35732 C126.683227,129.944723 120.693392,151.140929 117.083227,171.4489 C123.311735,152.410321 143.450519,144.226624 143.450519,144.226624 C143.450519,144.226624 153.328088,132.044885 164.871072,114.641298 C157.956597,116.218314 146.602785,118.917983 142.799912,120.516215 C137.190188,122.869364 135.678586,123.672016 135.678586,123.672016 C135.678586,123.672016 153.849635,112.606381 169.43947,107.595994 C190.87947,73.828038 214.237702,25.8563253 190.71505,4.8724579"
       fill="#003B57"
       id="path6" />
  </g>
  <path
     style="fill:#2f88ff;stroke:#0000ff;stroke-width:2.4158;paint-order:fill markers stroke"
     d="m 176.72778,563.29849 c -3.7277,-15.05824 -5.73965,-35.84828 -5.7542,-59.45966 -0.008,-12.81847 -0.42728,-17.72562 -2.38226,-27.87457 -3.10706,-16.12977 -6.64993,-29.68554 -9.39164,-35.93443 -2.20353,-5.02229 -2.20517,-5.05326 -0.69957,-13.24587 0.83001,-4.51648 1.84002,-8.4163 2.24445,-8.66626 0.78163,-0.48307 11.37256,19.79641 12.35303,23.65357 0.31909,1.25527 0.79419,2.06827 1.05578,1.80667 0.7366,-0.73659 -4.70878,-20.64711 -7.41577,-27.11502 -1.32995,-3.17772 -2.63787,-6.48468 -2.90648,-7.34881 -0.48037,-1.54537 2.98156,-13.49436 4.34287,-14.98959 0.7697,-0.84544 6.77744,9.84452 10.21451,18.17535 1.20974,2.93218 2.36304,5.16772 2.5629,4.96786 0.63477,-0.63477 -4.55897,-19.32386 -7.31686,-26.3289 l -2.65286,-6.73828 1.88837,-8.12815 c 6.60078,-28.41181 21.91013,-65.13201 38.97664,-93.48732 13.55195,-22.51601 33.74686,-45.60973 46.63374,-53.32762 11.95883,-7.1621 23.31025,-8.55264 32.30899,-3.95785 9.18547,4.69013 17.94536,16.96316 20.63636,28.9125 1.48172,6.57957 1.43847,21.81113 -0.0868,30.57302 -1.65011,9.47889 -6.78264,26.21126 -11.82794,38.55982 -5.3691,13.14108 -18.34455,38.45398 -27.65399,53.94822 -7.15427,11.90729 -7.38169,12.16806 -12.04833,13.8149 -8.38213,2.95804 -24.86569,10.62292 -36.57989,17.00972 -11.8999,6.48805 -15.20426,9.36653 -6.03949,5.26109 2.93845,-1.31629 6.37645,-2.79947 7.64002,-3.29594 2.07323,-0.8146 22.82382,-6.30734 29.01437,-7.68019 2.33316,-0.51742 2.02777,0.14071 -4.3796,9.43807 -3.7882,5.49683 -10.97954,15.41258 -15.98075,22.03498 -8.38925,11.1087 -9.66848,12.37965 -16.52632,16.4194 -13.58989,8.0054 -24.06023,18.07321 -29.82951,28.68273 l -2.27365,4.18119 0.56446,-3.25204 c 2.46173,-14.18268 10.88337,-45.26188 18.25373,-67.36353 18.74059,-56.19779 55.9521,-128.84877 80.54736,-157.259 3.64989,-4.21603 6.26198,-7.6655 5.80465,-7.6655 -1.55156,0 -14.35951,12.5012 -22.41853,21.88159 -16.62319,19.34878 -32.08956,43.42968 -46.81606,72.89193 -14.93339,29.87613 -21.74144,47.02263 -29.42589,74.11092 -16.17315,57.01158 -20.98822,111.41275 -12.91715,145.93921 2.09831,8.97613 2.04525,8.5213 0.99401,8.5213 -0.44828,0 -1.66899,-3.44948 -2.71267,-7.66551 z"
     id="path7"
     transform="matrix(0.64,0,0,0.64,0,-142)" />
  <path
     style="fill:#2f88ff;stroke:#0000ff;stroke-width:2.4158;paint-order:fill markers stroke"
     d="m 293.1475,532.94108 c -3.57723,-0.983 -8.33363,-2.44671 -10.56978,-3.25268 -5.65709,-2.03898 -8.05052,-1.83719 -10.17014,0.85748 -1.00495,1.27758 -2.49871,2.32288 -3.31947,2.32288 -1.31672,0 -1.49229,-2.03034 -1.49229,-17.25744 0,-15.93539 0.12456,-17.23349 1.62602,-16.94465 1.20432,0.23167 1.78107,1.57999 2.22389,5.199 1.2853,10.50425 8.00861,19.38829 18.33823,24.23173 4.43343,2.0788 6.48444,2.44777 13.58422,2.44378 12.80592,-0.007 19.94735,-3.83315 24.27184,-13.00343 2.97405,-6.30659 2.97793,-14.11874 0.0102,-20.44135 -3.11912,-6.64509 -10.02518,-12.65714 -28.53759,-24.84332 -25.23357,-16.61052 -30.02689,-23.16189 -30.09027,-41.12648 -0.0294,-8.32803 0.23644,-9.83976 2.56349,-14.57848 3.35033,-6.82249 11.05351,-13.90558 18.08047,-16.62502 8.06214,-3.12005 19.24776,-2.93312 31.74533,0.5305 l 9.68107,2.68305 1.3498,-2.0329 c 0.74239,-1.1181 1.92597,-2.0329 2.63019,-2.0329 1.03441,0 1.2804,2.85608 1.2804,14.86643 0,12.51017 -0.2181,14.86644 -1.37603,14.86644 -0.75681,0 -1.62205,-1.14983 -1.92274,-2.55517 -2.10566,-9.8411 -6.86562,-16.81873 -14.35512,-21.04318 -4.81589,-2.7164 -5.67248,-2.88249 -14.86644,-2.88249 -8.69423,0 -10.20214,0.25282 -13.85422,2.32288 -2.25397,1.27758 -5.37752,3.91439 -6.94123,5.85958 -2.41104,2.99922 -2.89711,4.49248 -3.19848,9.82602 -0.70626,12.49907 5.57738,20.46847 26.41603,33.5029 30.01188,18.77222 36.84719,27.03105 36.99873,44.70405 0.0633,7.383 -0.17978,8.44761 -3.43094,15.0259 -4.07255,8.24024 -10.45113,14.58577 -18.336,18.24099 -6.94491,3.21949 -18.99856,3.70262 -28.33914,1.13588 z"
     id="path8"
     transform="matrix(0.64,0,0,0.64,0,-142)" />
  <path
     style="fill:#2f88ff;stroke:#0000ff;stroke-width:2.4158;paint-order:fill markers stroke"
     d="m 473.90632,575.17912 c -4.04405,-0.76779 -10.23495,-2.94025 -14.86643,-5.2168 -7.32069,-3.59839 -9.16217,-5.14753 -23.73211,-19.96465 -13.80196,-14.03612 -16.32331,-16.20038 -19.97677,-17.14764 -21.76809,-5.64399 -41.45862,-24.17243 -48.85777,-45.9743 -3.03635,-8.94673 -4.07415,-24.02647 -2.28648,-33.22365 5.02762,-25.86605 24.21147,-46.54628 49.9277,-53.82218 10.00805,-2.83158 27.27229,-2.8286 37.71989,0.007 12.45861,3.38082 21.30089,8.64794 31.40403,18.70659 7.36312,7.3307 9.57507,10.23538 12.76661,16.76479 2.12321,4.34379 4.48811,10.37594 5.25533,13.40479 7.26766,28.69178 -4.45579,58.18749 -29.71959,74.77328 -5.30575,3.48325 -13.11878,6.78224 -23.51201,9.92775 -1.52929,0.46283 15.25186,20.5517 22.76111,27.24753 2.97036,2.6486 7.7003,5.94574 10.51098,7.32697 4.54242,2.23223 6.19455,2.51613 14.86644,2.55466 5.36585,0.0239 9.96515,0.44197 10.22067,0.92916 0.80885,1.54222 -9.12332,4.15168 -17.49123,4.59544 -4.90381,0.26006 -10.77436,-0.0878 -14.99037,-0.88824 z m -29.64981,-45.50688 c 8.85078,-1.87601 15.26618,-5.48642 22.20664,-12.49726 7.06898,-7.14065 12.10439,-16.12157 15.00829,-26.76803 2.91981,-10.70477 2.94781,-35.40301 0.0532,-46.93753 -6.67201,-26.587 -23.82716,-41.61112 -47.51327,-41.61112 -14.54141,0 -24.54569,3.95967 -34.0114,13.46161 -11.20598,11.24887 -16.19561,24.88492 -16.94268,46.30228 -0.5398,15.47554 0.53396,24.47339 4.10093,34.36469 9.57374,26.54817 31.0355,39.20964 57.09826,33.68536 z"
     id="path9"
     transform="matrix(0.64,0,0,0.64,0,-142)" />
  <path
     style="fill:#2f88ff;stroke:#0000ff;stroke-width:2.4158;paint-order:fill markers stroke"
     d="m 515.67944,531.01045 c 0,-1.31149 0.61944,-1.8583 2.10509,-1.8583 4.09444,0 8.50706,-3.23004 9.6702,-7.07858 0.77644,-2.56909 1.11057,-19.18557 1.16144,-57.75963 0.0797,-60.41233 0.16773,-59.48723 -5.9048,-62.0245 -1.7906,-0.74816 -4.52342,-1.36029 -6.07293,-1.36029 -2.19787,0 -2.8173,-0.40858 -2.8173,-1.8583 0,-1.80559 0.61943,-1.85831 21.83507,-1.85831 20.17774,0 21.83471,0.12342 21.8302,1.62602 -0.003,1.11981 -1.36837,2.05991 -4.38464,3.01974 -3.29333,1.04801 -4.84651,2.20043 -6.26132,4.64577 -1.83116,3.16491 -1.88171,4.72146 -1.88714,58.10799 -0.006,61.89106 -0.42659,58.31659 7.26779,61.81008 3.09898,1.40704 6.09745,1.76414 14.95018,1.78045 13.20468,0.0243 21.75696,-1.30645 25.86565,-4.02484 1.75373,-1.16031 3.98554,-4.03272 5.33705,-6.86898 3.024,-6.34608 5.095,-6.56953 4.33659,-0.46789 -0.30171,2.42741 -0.82771,7.02672 -1.16887,10.22068 l -0.62029,5.8072 h -42.62098 c -42.00155,0 -42.62099,-0.027 -42.62099,-1.85831 z"
     id="path10"
     transform="matrix(0.64,0,0,0.64,0,-142)" />
  <path
     style="fill:#2f88ff;stroke:#0000ff;stroke-width:2.4158;paint-order:fill markers stroke"
     d="m 620.67364,530.57788 c 0,-0.9338 1.47074,-1.55683 4.6801,-1.98256 7.56052,-1.00294 7.39887,-0.28904 7.39887,-32.67705 v -28.17463 l -2.3825,-2.38251 c -2.23123,-2.23123 -2.76219,-2.34184 -8.36237,-1.74211 -5.48633,0.58754 -5.97987,0.49421 -5.97987,-1.13078 0,-1.52028 1.8755,-2.19195 13.24042,-4.74179 7.28223,-1.63384 13.97213,-2.96069 14.86644,-2.94855 1.51878,0.0206 1.62601,2.28103 1.62601,34.2754 0,33.24625 0.0566,34.32531 1.92575,36.70151 1.0842,1.37834 2.8606,2.44819 4.06504,2.44819 4.12387,0 7.9465,1.17328 7.9465,2.43902 0,1.04345 -3.57583,1.27759 -19.5122,1.27759 -16.52093,0 -19.51219,-0.20876 -19.51219,-1.36173 z"
     id="path11"
     transform="matrix(0.64,0,0,0.64,0,-142)" />
  <path
     style="fill:#2f88ff;stroke:#0000ff;stroke-width:2.4158;paint-order:fill markers stroke"
     d="m 687.63864,533.14844 c -1.75229,-0.92037 -4.05194,-2.85314 -5.11034,-4.29503 -1.84443,-2.51275 -1.93588,-3.95012 -2.202,-34.61092 l -0.27765,-31.9893 h -6.92328 c -5.59765,0 -6.92328,-0.27244 -6.92328,-1.42289 0,-0.78258 0.52265,-1.57107 1.16144,-1.75219 0.63879,-0.18111 2.99084,-0.82765 5.22676,-1.43674 5.55767,-1.51398 12.2769,-8.32986 14.74639,-14.95852 1.05719,-2.83772 2.53954,-5.18387 3.38193,-5.35261 1.3046,-0.26132 1.49974,0.97787 1.49974,9.52381 v 9.82423 h 10.68525 10.68525 v 2.78746 2.78745 h -10.73354 -10.73354 l 0.28058,29.81446 0.28058,29.81446 2.72303,2.34112 c 2.19768,1.88944 3.40465,2.24969 6.25598,1.86725 4.8508,-0.65063 10.97459,-3.76358 15.85551,-8.05994 3.00801,-2.64775 4.44437,-3.36659 5.42407,-2.7145 1.0554,0.70247 0.005,2.13835 -5.05191,6.90329 -10.63514,10.02186 -23.2804,14.59036 -30.25097,10.92911 z"
     id="path12"
     transform="matrix(0.64,0,0,0.64,0,-142)" />
  <path
     style="fill:#2f88ff;stroke:#0000ff;stroke-width:2.4158;paint-order:fill markers stroke"
     d="m 758.32452,533.77673 c -14.75919,-3.07903 -23.7679,-17.04559 -23.65954,-36.68033 0.0886,-16.05801 9.61524,-32.64942 22.78444,-39.68101 3.46606,-1.85067 5.33458,-2.13084 14.21144,-2.13084 8.63646,0 10.72425,0.29583 13.46955,1.90854 4.52385,2.65752 7.43637,7.30091 7.43637,11.85569 0,3.43818 -0.57647,4.29451 -7.29194,10.83191 -8.83358,8.59935 -17.18897,13.03128 -30.24868,16.04476 l -9.10135,2.1001 0.50616,4.3559 c 2.04684,17.61448 16.7747,26.47909 33.55934,20.19915 5.89886,-2.20704 13.35876,-7.76158 15.28252,-11.37913 1.01222,-1.90344 1.59508,-2.2331 2.54882,-1.44157 1.00492,0.83401 0.6094,2.21957 -2.11179,7.39802 -4.19223,7.97781 -9.80895,13.27674 -16.03182,15.12473 -6.19495,1.8397 -16.30572,2.54714 -21.35352,1.49408 z m -3.98423,-40.8876 c 8.59719,-2.3824 14.73064,-5.48001 18.51497,-9.35072 6.96015,-7.119 4.05629,-18.58019 -5.39429,-21.29058 -10.50067,-3.01155 -20.31831,8.51167 -21.18054,24.86018 -0.22236,4.21603 -0.0299,7.66551 0.42777,7.66551 0.45763,0 3.89207,-0.84797 7.63209,-1.88439 z"
     id="path13"
     transform="matrix(0.64,0,0,0.64,0,-142)" />
  <path
     style="fill:#2f88ff;stroke:#0000ff;stroke-width:2.4158;paint-order:fill markers stroke"
     d="m 629.67384,433.99325 c -1.33154,-1.23403 -2.71026,-3.39628 -3.06383,-4.805 -0.52473,-2.09069 -0.16616,-2.97134 1.95149,-4.79286 4.0289,-3.46552 9.18185,-1.48835 11.64988,4.47002 2.60478,6.28848 -5.19152,10.08236 -10.53754,5.12784 z"
     id="path14"
     transform="matrix(0.64,0,0,0.64,0,-142)" />
</svg>
